<svg shape-rendering="crispEdges" xmlns="http://www.w3.org/2000/svg" viewBox="0 0 20 20" style="enable-background:new 0 0 20 20" xml:space="preserve"><path d="M5.5 3.5h1m0 5h1m5 0h1m-10 1h1m7 0h1m-3 3h1m-5 4h1m4 0h1"/><path d="M11.5 17h-1v-1h1v1zm-5 0h-1v-1h1v1zm4-4h-1v-1h1v1zm2-3h-1V9h1v1zm-8 0h-1V9h1v1zm9-1h-1V8h1v1zm-6 0h-1V8h1v1zm-1-5h-1V3h1v1z" style="fill:#010000"/><path d="M6.5 3.5h1m1 0h3m1 0h2m-10 1h1m8 0h1m-11 1h2m4 0h2m4 0h1m-13 1h1m4 0h1m1 0h1m4 0h1m-7 1h2m4 0h1m-7 1h1m5 0h1m-8 1h1m6 0h1m-13 1h1m11 0h1m-1 1h1m-1 1h1m-13 1h1m4 0h1m6 0h1m-13 1h2m2 0h1m3 0h1m-7 1h1m7 0h1m-6 1h2m1 0h3M14.5 17h-3v-1h2v-1h1v2zm-4 0h-2v-1h2v1zm-4-1h-1v-1h-2v-2h1v1h1v1h1v1zm6-1h-1v-1h1v1zm-4 0h-1v-1h1v1zm8-1h-1V5h1v9zm-7 0h-1v-1h1v1zm-5-3h-1v-1h1v1zm5-1h-1V9h1v1zm1-1h-1V7h-1V6h1v1h1V6h-1V5h2v3h-1v1zm-6-2h-1V5h1V4h1v2h-1v1zm10-2h-1V4h-1V3h2v2zm-3-1h-3V3h3v1zm-4 0h-1V3h1v1zM7.5 3.5h1m0 2h1m-6 2h1m4 0h1m-2 2h1m1 0h1m-6 6h1m9 0h1m-9 1h1"/><path d="M7.5 17h-1v-1h1v1zm8-1h-1v-1h1v1zm-10 0h-1v-1h1v1zm5-6h-1V9h1v1zm-2 0h-1V9h1v1zm1-2h-1V7h1v1zm-5 0h-1V7h1v1zm5-2h-1V5h1v1zm-1-2h-1V3h1v1z" style="fill:#000001"/><path d="M11.5 3.5h1"/><path style="fill:#000101" d="M11.5 3h1v1h-1z"/><path d="M5.5 4.5h1m8 0h1m-1 1h1m-12 3h1m5 2h1m-1 1h1m-7 1h1m6 1h1m-4 3h1"/><path d="M8.5 17h-1v-1h1v1zm3-3h-1v-1h1v1zm-7-1h-1v-1h1v1zm6-1h-1v-2h1v2zm-6-3h-1V8h1v1zm11-3h-1V4h1v2zm-9-1h-1V4h1v1z" style="fill:#000100"/><path d="M10.5 9.5h1m-8 2h1m11 3h1"/><path d="M16.5 15h-1v-1h1v1zm-12-3h-1v-1h1v1zm7-2h-1V9h1v1z" style="fill:#010100"/><path d="M14.5 14.5h1"/><path style="fill:#010001" d="M14.5 14h1v1h-1z"/></svg>