<svg shape-rendering="crispEdges" xmlns="http://www.w3.org/2000/svg" viewBox="0 0 20 20" style="enable-background:new 0 0 20 20" xml:space="preserve"><path d="M15 5.5h2m-2 1h1m-3 1h3m-3 1h2m-4 1h2m-10 1h2m7 0h1m-9 1h2m3 0h3m-8 1h2m2 0h2m-4 1h1m1 0h2m-4 1h3M9 15H6v-2H4v-2H3v-1h2v1h1v2h1v1h1v-2h1v-1h3v1h-2v2H9v1zm4-4h-1v-1h-1V9h2v2zm2-2h-2V7h2V5h2v1h-1v2h-1v1zM14 6.5h1m-2 3h1m-4 3h1m-6 1h1"/><path d="M6 14H5v-1h1v1zm5-1h-1v-1h1v1zm3-3h-1V9h1v1zm1-3h-1V6h1v1z" style="fill:#000100"/><path d="M16 6.5h1m-14 5h1m3 2h1"/><path d="M8 14H7v-1h1v1zm-4-2H3v-1h1v1zm13-5h-1V6h1v1z" style="fill:#000001"/><path d="M12 8.5h1m-2 2h1m-6 2h1"/><path d="M7 13H6v-1h1v1zm5-2h-1v-1h1v1zm1-2h-1V8h1v1z" style="fill:#010000"/><path d="M10 10.5h1"/><path style="fill:#010100" d="M10 10h1v1h-1z"/></svg>