<svg xmlns="http://www.w3.org/2000/svg" viewBox="0 -0.5 20 20" shape-rendering="crispEdges">
    <symbol style="fill:currentColor" id="ppi-dragon" viewBox= "0 0 20 20">
        <title>Silhoutte of a dragon</title>
        <path stroke="#000"
            d="M8 0h1m2 0h1m2 0h1m1 0h1M8 1h2m3 0h3m1 0h1M7 2h2m2 0h1m1 0h1m3 0h2M6 3h1m1 0h1m1 0h4m4 0h1M6 4h3m1 0h1m7 0h1M5 5h4m2 0h2m2 0h1M5 6h4m1 0h2m5 0h1M4 7h1m1 0h2m2 0h2m1 0h1M4 8h1m2 0h2m1 0h1m2 0h2M3 9h5m1 0h1m3 0h1m-8 1h4m1 0h1m1 0h2M2 11h5m1 0h1m3 0h4M1 12h5m2 0h1m2 0h3m3 0h1M3 13h2m5 0h2m5 0h1M3 14h2m7 0h1m1 0h1m-6 1h1m2 0h1m-7 1h1m3 0h2m1 0h2m-8 1h1m1 0h4m1 0h1m-7 1h1m2 0h5m-9 1h1m1 0h2m1 0h3m2 0h1" />
        <path stroke="#000101" d="M9 0h1M7 1h1m5 4h1M5 7h1m4 2h1m4 1h1m-5 4h1m-4 3h1" />
        <path stroke="#010000"
            d="M10 0h1m2 0h1m2 1h1M6 2h1m0 1h1m1 1h1m1 0h1m2 0h1m-1 2h1m1 0h1m-3 1h1m-4 2h1m-8 1h2m6 0h1m-2 1h1m-2 1h1m5 0h1M5 13h1m2 0h1m-1 3h1m3 0h1" />
        <path stroke="#000001"
            d="M15 0h1m-4 1h1m1 4h1m0 1h1m-4 1h1m4 0h1M5 8h1m3 0h1m1 0h1M8 9h1m3 0h1m1 0h1m-5 2h1m-5 1h2m-6 1h1m10 0h1m-5 1h1m3 0h1m-7 1h1m2 0h1m4 1h1M5 18h1m1 0h1m1 0h2m5 0h2M4 19h1m6 0h1" />
        <path stroke="#000100"
            d="M12 2h1M9 3h1m2 3h1M6 8h1m5 0h1m-3 2h1M1 11h1m12 1h2m-2 1h1m-5 1h1m0 1h1m1 0h2m-6 1h1m5 1h1M6 19h1m1 0h1" />
        <path stroke="#010001" d="M14 2h1M9 5h2m2 1h1M2 14h1" />
        <path stroke="rgba(0,1,0,0.9882352941176471)" d="M12 4h1" />
        <path stroke="#010100" d="M13 4h1M3 10h1m8 3h1m0 4h1" />
        <path stroke="rgba(0,0,0,0.996078431372549)" d="M16 5h1m-2 2h1m-1 1h1m0 2h1m-1 1h1m-2 4h1m0 1h1" />
        <path stroke="rgba(0,0,0,0.00392156862745098)" d="M16 7h1" />
        <path stroke="rgba(0,0,1,0.996078431372549)" d="M15 9h1m-8 5h1" />
        <path stroke="#010101" d="M7 11h1" />
        <path stroke="rgba(1,0,0,0.9764705882352941)" d="M9 11h1m-2 4h1" />
        <path stroke="rgba(1,1,0,0.9764705882352941)" d="M9 12h1m-1 1h1" />
        <path stroke="rgba(0,0,0,0.9686274509803922)" d="M6 13h1m-1 5h1" />
        <path stroke="rgba(0,0,1,0.00784313725490196)" d="M7 13h1" />
        <path stroke="rgba(1,0,0,0.996078431372549)" d="M15 13h1m0 4h1" />
        <path stroke="rgba(1,0,0,0.00392156862745098)" d="M16 13h1" />
        <path stroke="rgba(0,0,1,0.9647058823529412)" d="M5 14h1" />
        <path stroke="rgba(0,1,0,0.996078431372549)" d="M15 14h1" />
        <path stroke="rgba(0,1,0,0.9686274509803922)" d="M7 16h1" />
        <path stroke="rgba(0,0,1,0.9921568627450981)" d="M6 17h1" />
        <path stroke="rgba(0,0,0,0.9647058823529412)" d="M5 19h1" />
        <path stroke="rgba(0,1,0,0.9921568627450981)" d="M15 19h1" />
        <path stroke="rgba(0,0,1,0.00392156862745098)" d="M16 19h1" />
    </symbol>
</svg>