<svg shape-rendering="crispEdges" xmlns="http://www.w3.org/2000/svg" viewBox="0 0 20 20" style="enable-background:new 0 0 20 20" xml:space="preserve"><path d="M9.5 3.5h3m-4 1h1m5 0h1m-8 1h2m5 0h1m-3 1h1m1 0h1m0 1h1m-9 1h1m7 0h1m-14 1h1m11 0h1m-11 1h2m1 0h1m5 0h2m-13 1h1m11 0h1m-13 1h1m3 0h4m-4 1h1m-4 1h1m10 0h1m-2 1h2m-11 1h1m1 0h1m6 0h1M14.5 17h-1v-2h1v-1h1v2h-1v1zm-7 0h-1v-1h1v1zm-2 0h-1v-1h1v1zm-1-2h-1v-1h1v1zm3-1h-1v-2h4v1h-3v1zm-4-1h-1v-2h1v2zm12-1h-1v-1h-1v-1h1V9h1v3zm-7-1h-1v-1h1v1zm-2 0h-2v-1h2v1zm-3-1h-1V9h1v1zm13-1h-1V7h-1V4h1v3h1v2zm-8 0h-1V8h1v1zm5-2h-1V6h1v1zm-4-1h-2V5h1V4h1v2zm3-2h-3V3h3v1zM12.5 3.5h1M12.5 3h1v1h-1zM13.5 3.5h1m-1 1h1m2 3h1m-4 2h1m-8 1h1m2 0h1"/><path d="M10.5 11h-1v-1h1v1zm-3 0h-1v-1h1v1zm7-1h-1V9h1v1zm3-2h-1V7h1v1zm-3-3h-1V3h1v2zM9.5 4.5h1m-2 4h1m-6 1h1m4 0h2m4 3h1m-13 1h1m1 2h1"/><path d="M5.5 16h-1v-1h1v1zm-2-2h-1v-1h1v1zm12-1h-1v-1h1v1zm-5-3h-2V8h1v1h1v1zm-6 0h-1V9h1v1zm6-5h-1V4h1v1zM7.5 6.5h1m0 4h1m-4 6h1"/><path d="M6.5 17h-1v-1h1v1zm3-6h-1v-1h1v1zm-1-4h-1V6h1v1zM15.5 6.5h1m-2 7h1m-13 1h1M3.5 15h-1v-1h1v1zm12-1h-1v-1h1v1zm1-7h-1V6h1v1zM7.5 7.5h1"/><path d="M7.5 7h1v1h-1zM14.5 8.5h1M14.5 8h1v1h-1zM2.5 10.5h1m0 5h1M4.5 16h-1v-1h1v1zm-1-5h-1v-1h1v1zM7.5 16.5h1M7.5 16h1v1h-1zM8.5 16.5h1M8.5 16h1v1h-1zM9.5 16.5h1M9.5 16h1v1h-1zM10.5 16.5h1M10.5 16h1v1h-1zM11.5 16.5h1M11.5 16h1v1h-1zM12.5 16.5h1M12.5 16h1v1h-1z"/></svg>