<svg shape-rendering="crispEdges" xmlns="http://www.w3.org/2000/svg" viewBox="0 0 20 20" style="enable-background:new 0 0 20 20" xml:space="preserve"><path d="M6 4.5h3m2 0h1m-7 1h1m8 0h1m-11 1h2m8 0h2m-12 1h1m1 2h1m8 0h1m-10 1h2m2 0h1m4 0h1m-12 1h1m-1 2h2m9 0h1m-11 1h1m7 0h1m-8 1h2m1 0h1m2 0h1M13 16h-1v-1h1v1zm-3 0H9v-1h1v1zm-2 0H6v-1H5v-1H4v-1h2v2h2v1zm6-1h-1v-1h1v1zm2-1h-1v-1h1v1zM5 12H4v-1h1v1zm11-1h-1V9h1v2zm-5 0h-1v-1h1v1zm-3 0H6V9h1v1h1v1zM5 8H4V6h1V5h1v2H5v1zm11-1h-2V5h1v1h1v1zm-4-2h-1V4h1v1zM9 5H6V4h3v1zM9 4.5h2m1 0h1m-7 1h1m6 0h1m1 2h1m-3 2h1m-10 1h1m4 0h1m2 0h1"/><path d="M13 11h-1v-1h1v1zm-3 0H9v-1h1v1zm-5 0H4v-1h1v1zm9-1h-1V9h1v1zm2-2h-1V7h1v1zm-2-2h-1V5h-1V4h1v1h1v1zM7 6H6V5h1v1zm4-1H9V4h2v1z" style="fill:#000100"/><path d="M13 4.5h1m1 4h1m-9 1h1m1 0h1m2 0h1m2 2h1m-8 4h1m4 0h1"/><path d="M14 16h-1v-1h1v1zm-5 0H8v-1h1v1zm7-4h-1v-1h1v1zm-3-2h-1V9h1v1zm-3 0H9V9h1v1zm-2 0H7V9h1v1zm8-1h-1V8h1v1zm-2-4h-1V4h1v1z" style="fill:#000001"/><path d="M4 8.5h1m5 1h1m2 1h1m-10 2h1m10 0h1m-10 2h1"/><path d="M7 15H6v-1h1v1zm9-2h-1v-1h1v1zM5 13H4v-1h1v1zm9-2h-1v-1h1v1zm-3-1h-1V9h1v1zM5 9H4V8h1v1z" style="fill:#010000"/><path d="M4 9.5h1m5 6h2"/><path d="M12 16h-2v-1h2v1zm-7-6H4V9h1v1z" style="fill:#000101"/><path d="M14 13.5h1"/><path style="fill:#010001" d="M14 13h1v1h-1z"/><path d="M14 14.5h1"/><path style="fill:#010100" d="M14 14h1v1h-1z"/></svg>