<svg shape-rendering="crispEdges" xmlns="http://www.w3.org/2000/svg" viewBox="0 0 20 20" style="enable-background:new 0 0 20 20" xml:space="preserve"><path d="M6 4.5h1m1 0h1m6 3h1m-6 3h1m-7 1h1m-1 1h1m1 2h1m7 0h1"/><path d="M15 15h-1v-1h1v1zm-8 0H6v-1h1v1zm-2-2H4v-2h1v2zm6-2h-1v-1h1v1zm5-3h-1V7h1v1zM9 5H8V4h1v1zM7 5H6V4h1v1z" style="fill:#010000"/><path d="M7 4.5h1m1 0h5m-9 1h2m6 0h2m-11 1h2m3 0h1m4 0h2m-12 1h1m-1 1h1m10 0h1m-12 1h1m5 0h1m-7 1h1m10 0h1m-7 1h2m4 0h1m-6 1h1m-7 1h1m4 0h2m3 0h1m-2 1h1m-7 1h2m1 0h1M11 16h-1v-1h1v1zm-2 0H7v-1h2v1zm5-1h-1v-1h1v1zm1-1h-1v-1h1v1zm-4 0H9v-1h1v-1H9v-1h2v3zm-6 0H4v-1h1v1zm11-2h-1v-2h1v2zM5 11H4V6h1V5h2v1H6v1H5v4zm6-1h-1V9h1v1zm5-1h-1V8h1v1zm0-2h-2V6h-1V5H9V4h5v1h1v1h1v1zm-6 0H9V6h1v1zM8 5H7V4h1v1zM10 6.5h1m-2 3h1m-1 1h1m5 3h1m-11 1h1m0 1h1m4 0h2"/><path d="M13 16h-2v-1h2v1zm-6 0H6v-1H5v-1h1v1h1v1zm9-2h-1v-1h1v1zm-6-3H9V9h1v2zm1-4h-1V6h1v1z" style="fill:#000100"/><path d="M9 7.5h1m1 6h1"/><path d="M12 14h-1v-1h1v1zm-2-6H9V7h1v1z" style="fill:#010100"/><path d="M10 7.5h1m-3 2h1m6 0h1m-7 3h1m5 0h1m-11 1h1"/><path d="M6 14H5v-1h1v1zm10-1h-1v-1h1v1zm-6 0H9v-1h1v1zm6-3h-1V9h1v1zm-7 0H8V9h1v1zm2-2h-1V7h1v1z" style="fill:#000001"/><path d="M9 15.5h1"/><path style="fill:#000101" d="M9 15h1v1H9z"/><path d="M13 15.5h1"/><path style="fill:#010001" d="M13 15h1v1h-1z"/></svg>