<svg shape-rendering="crispEdges" xmlns="http://www.w3.org/2000/svg" viewBox="0 0 20 20" style="enable-background:new 0 0 20 20" xml:space="preserve"><path d="M11 4.5h1m3 0h1m-5 1h1m2 0h1m-3 2h2m-10 1h1m1 0h2m6 0h1m-12 1h1m4 0h2m4 0h1m1 1h1m-15 1h2m13 0h1m-7 1h1m5 0h1m-14 1h1m6 0h1m3 0h2m-13 1h2m1 0h1m1 0h2m2 0h1m-9 1h1M6 16H5v-1H4v-2h1v1h1v2zm8-1h-1v-1h1v1zm-3 0H9v-1h2v1zm-3 0H7v-1h1v1zm9-1h-2v-1h2v1zm-5 0h-1v-2h1v2zm6-1h-1v-2h-1v-1h1v1h1v2zM4 12H2v-1h2v1zm11-2h-1V8h-2V7h2v1h1v2zm-5 0H8V9H6V8h2v1h2v1zm-6 0H3V9h1v1zm1-1H4V8h1v1zm10-3h-1V5h1v1zm-3 0h-1V4h1v2zm4-1h-1V4h1v1zM11 7.5h1m3 2h1m1 4h1m-7 1h1"/><path d="M12 15h-1v-1h1v1zm6-1h-1v-1h1v1zm-2-4h-1V9h1v1zm-4-2h-1V7h1v1z" style="fill:#000100"/><path d="M16 7.5h2m-13 1h1m-4 2h1m7 1h1m5 0h1m-7 1h1"/><path d="M11 13h-1v-2h1v2zm6-1h-1v-1h1v1zM3 11H2v-1h1v1zm3-2H5V8h1v1zm12-1h-2V7h2v1z" style="fill:#010000"/><path d="M10 8.5h1m-3 6h1m3 0h1"/><path d="M13 15h-1v-1h1v1zm-4 0H8v-1h1v1zm2-6h-1V8h1v1z" style="fill:#000101"/><path d="M9 10.5h1m-4 5h1m4 0h2"/><path d="M13 16h-2v-1h2v1zm-6 0H6v-1h1v1zm3-5H9v-1h1v1z" style="fill:#000001"/><path d="M3 12.5h1"/><path style="fill:#010100" d="M3 12h1v1H3z"/><path d="M14 13.5h1"/><path style="fill:#010001" d="M14 13h1v1h-1z"/></svg>