<svg shape-rendering="crispEdges" xmlns="http://www.w3.org/2000/svg" viewBox="0 0 20 20" style="enable-background:new 0 0 20 20" xml:space="preserve"><path d="M5.5 4h1m6 2h1m-10 2h1m3 1h1m-5 5h1m0 2h1"/><path d="M5.5 16.5h-1v-1h1v1zm-1-2h-1v-1h1v1zm4-5h-1v-1h1v1zm-4-1h-1v-1h1v1zm9-2h-1v-1h1v1zm-7-2h-1v-1h1v1z" style="fill:#010000"/><path d="M6.5 4h1"/><path style="fill:#0f0f0f" d="M6.5 3.5h1v1h-1z"/><path d="M7.5 4h1m2 2h1m4 0h1m-13 4h1m11 0h1m-9 1h1m7 0h1m-13 2h1m11 1h1m-2 1h1m-2 1h1"/><path d="M14.5 16.5h-1v-1h1v1zm1-1h-1v-1h1v1zm1-1h-1v-1h1v1zm-12-1h-1v-1h1v1zm12-2h-1v-2h1v2zm-8 0h-1v-1h1v1zm-4-1h-1v-1h1v1zm12-4h-1v-1h1v1zm-5 0h-1v-1h1v1zm-3-2h-1v-1h1v1z" style="fill:#000100"/><path d="M8.5 4h1m0 1h1m-3 1h1m3 0h1m-5 2h1m-5 1h1m7 2h1m-6 4h1m1 0h1m0 1h2"/><path d="M11.5 16.5h-2v-1h-1v-1h1v1h2v1zm-4-1h-1v-1h1v1zm5-4h-1v-1h1v1zm-8-2h-1v-1h1v1zm4-1h-1v-1h1v1zm4-2h-1v-1h1v1zm-4 0h-1v-1h1v1zm2-1h-1v-1h-1v-1h1v1h1v1z" style="fill:#000001"/><path d="M9.5 4h1m4 0h1m-11 1h2m1 0h1m4 0h2m-10 1h1m2 1h1m7 0h1m-1 1h1m-5 1h1m3 0h1m-9 1h1m3 0h1m-9 2h1m3 0h1m3 0h1m3 0h1m-9 1h1m3 0h1m3 0h1m-10 1h3m2 0h1m2 0h1m-4 1h1m-9 1h1m1 0h1M6.5 16.5h-1v-1h1v1zm-2 0h-1v-1h1v1zm8-1h-1v-4h1v4zm3-1h-1v-1h1v1zm-6 0h-3v-1h1v-2h1v2h1v1zm7-1h-1v-2h1v2zm-12-1h-1v-1h1v1zm8-2h-1v-2h1v2zm-4 0h-1v-1h1v1zm8-1h-1v-3h1v3zm-8-2h-1v-1h1v1zm-3-1h-1v-2h2v1h-1v1zm9-1h-2v-1h2v1zm-6 0h-1v-1h1v1zm7-1h-1v-1h1v1zm-5 0h-1v-1h1v1zM13.5 4h1m-11 2h1m7 10h2"/><path d="M13.5 16.5h-2v-1h2v1zm-9-10h-1v-1h1v1zm10-2h-1v-1h1v1z" style="fill:#010100"/><path d="M15.5 4h1"/><path style="fill:#0a0a0a" d="M15.5 3.5h1v1h-1z"/><path d="M10.5 5h1"/><path style="fill:#020202" d="M10.5 4.5h1v1h-1z"/><path d="M15.5 5h1m-7 10h1"/><path d="M10.5 15.5h-1v-1h1v1zm6-10h-1v-1h1v1z" style="fill:#030302"/><path d="M3.5 7h1"/><path style="fill:#0b0a0b" d="M3.5 6.5h1v1h-1z"/><path d="M11.5 7h1m-1 1h1"/><path style="fill:#010001" d="M11.5 6.5h1v2h-1z"/><path d="M3.5 11h1m-1 4h1"/><path d="M4.5 15.5h-1v-1h1v1zm0-4h-1v-1h1v1z" style="fill:#010101"/><path d="M5.5 15h1"/><path style="fill:#131313" d="M5.5 14.5h1v1h-1z"/><path d="M13.5 15h1"/><path style="fill:#141514" d="M13.5 14.5h1v1h-1z"/></svg>