<svg shape-rendering="crispEdges" xmlns="http://www.w3.org/2000/svg" viewBox="0 0 20 20" style="enable-background:new 0 0 20 20" xml:space="preserve"><path d="M4 4.5h1m8 1h1m0 3h1m-5 1h1m2 2h1m-10 1h2m2 1h1m4 0h1m-7 1h1m2 0h2"/><path d="M12 15h-2v-1h2v1zm-4 0H7v-1h1v1zm6-1h-1v-1h1v1zm-5 0H8v-1h1v1zm-3-1H4v-1h2v1zm8-1h-1v-1h1v1zm-3-2h-1V9h1v1zm4-1h-1V8h1v1zm-1-3h-1V5h1v1zM5 5H4V4h1v1z" style="fill:#000100"/><path d="M5 4.5h3m-4 1h1m2 0h2m1 0h3m1 0h2m-9 1h3m1 0h3m1 0h1m-11 1h3m5 1h1m1 0h1m-12 1h2m1 0h1m1 0h1m1 0h1m-8 1h2m1 0h6m2 0h1m-4 1h1m1 0h2m-10 1h1m-3 1h1m2 0h1m1 0h4m1 0h1m-11 1h1m3 0h1m3 0h4m-12 1h4M8 16H4v-3h1v2h3v1zm8-1h-4v-1H9v-1h4v1h1v-1h1v1h1v1zm-7 0H8v-1H7v-1H6v-1h1v1h1v1h1v1zm7-3h-2v-1h1v-1h1v2zm-3 0h-1v-1H7V9h1v1h1V9h1v1h1V9h1v1h1v2zm-7-1H4V9h2v2zm10-2h-1V8h1v1zm-2 0h-1V8h1v1zM8 8H5V7h2V5H5V4h3v1h1v1h1v1H8v1zm8-1h-1V6h-1V5h2v2zm-2 0h-3V6h-1V5h3v1h1v1zM5 6H4V5h1v1zM9 5.5h1m-4 5h1m0 2h1m7 1h1"/><path d="M16 14h-1v-1h1v1zm-8-1H7v-1h1v1zm-1-2H6v-1h1v1zm3-5H9V5h1v1z" style="fill:#010000"/><path d="M4 6.5h1m9 0h1m-11 1h1m7 1h1m-7 1h1m1 0h1m6 0h1"/><path d="M16 10h-1V9h1v1zm-7 0H8V9h1v1zm-2 0H6V9h1v1zm6-1h-1V8h1v1zM5 8H4V6h1v2zm10-1h-1V6h1v1z" style="fill:#000001"/><path d="M10 6.5h1m1 3h1m-4 5h1"/><path d="M10 15H9v-1h1v1zm3-5h-1V9h1v1zm-2-3h-1V6h1v1z" style="fill:#000101"/></svg>