<svg shape-rendering="crispEdges" xmlns="http://www.w3.org/2000/svg" viewBox="0 0 20 20" style="enable-background:new 0 0 20 20" xml:space="preserve"><path d="M7.5 3.5h1"/><path style="fill:#131313" d="M7.5 3h1v1h-1z"/><path d="M8.5 3.5h3m-5 1h1m5 2h1m-1 1h1m-7 1h1m0 1h2m2 0h1m-5 2h2m2 0h1m-8 1h2m8 0h1m-1 1h2m-13 1h1m11 0h1m-1 1h1m-12 1h2m1 0h5m2 0h1M15.5 17h-1v-1h1v1zm-3 0h-5v-1h5v1zm-6 0h-2v-1h2v1zm10-1h-1v-2h-1v-2h1v1h1v3zm-12-1h-1v-1h1v1zm2-2h-2v-1h2v1zm6-1h-1v-1h1v1zm-3 0h-2v-1h2v1zm3-2h-1V9h1v1zm-3 0h-2V9h-1V8h1v1h2v1zm4-2h-1V6h1v2zm-6-3h-1V4h1v1zm4-1h-3V3h3v1zM11.5 3.5h1m-6 3h1m0 2h1m3 0h1m-2 1h1m-5 2h1m3 0h1m2 0h1m-11 2h1m9 3h1"/><path d="M14.5 17h-1v-1h1v1zm-10-3h-1v-1h1v1zm10-2h-1v-1h1v1zm-3 0h-1v-1h1v1zm-4 0h-1v-1h1v1zm4-2h-1V9h1v1zm1-1h-1V8h1v1zm-4 0h-1V8h1v1zm-1-2h-1V6h1v1zm5-3h-1V3h1v1z" style="fill:#000001"/><path d="M7.5 4.5h1m-2 1h1m5 0h1m-7 2h1m5 4h1m-1 5h1m2 0h1"/><path d="M16.5 17h-1v-1h1v1zm-3 0h-1v-1h1v1zm0-5h-1v-1h1v1zm-6-4h-1V7h1v1zm6-2h-1V5h1v1zm-6 0h-1V5h1v1zm1-1h-1V4h1v1z" style="fill:#010000"/><path d="M11.5 4.5h1m-9 11h1"/><path d="M4.5 16h-1v-1h1v1zm8-11h-1V4h1v1z" style="fill:#010100"/><path d="M12.5 4.5h1"/><path style="fill:#0f0f0f" d="M12.5 4h1v1h-1z"/><path d="M12.5 8.5h1m-8 3h1m0 5h1"/><path d="M7.5 17h-1v-1h1v1zm-1-5h-1v-1h1v1zm7-3h-1V8h1v1z" style="fill:#000100"/><path d="M9.5 9.5h1m-1 2h1m-6 2h1"/><path d="M5.5 14h-1v-1h1v1zm5-2h-1v-1h1v1zm0-2h-1V9h1v1z" style="fill:#010001"/><path d="M13.5 12.5h1m-11 4h1"/><path d="M4.5 17h-1v-1h1v1zm10-4h-1v-1h1v1z" style="fill:#000101"/></svg>