<svg shape-rendering="crispEdges" xmlns="http://www.w3.org/2000/svg" viewBox="0 0 20 20" style="enable-background:new 0 0 20 20" xml:space="preserve"><path d="M6.5 4h4m-7 2h1m7 0h2m-10 1h1m-1 2h2m7 0h1m-8 1h1m0 1h1m8 0h1m-11 1h2m-4 1h1m1 0h1m6 0h2m-2 2h1m-10 1h1m2 0h1m2 0h1m1 0h2M13.5 16.5h-2v-1h1v-1h1v2zm-3 0h-1v-1h1v1zm-3 0h-1v-1h1v1zm-3 0h-1v-1h1v1zm10-3h-2v-1h2v1zm-8 0h-1v-2h1v-1h-1v-1h-2v-1h2v1h1v1h1v2h-1v1zm-2 0h-1v-1h1v1zm12-2h-1v-1h1v1zm-3-2h-1v-1h1v1zm-9-2h-1v-2h1v2zm9-1h-2v-1h2v1zm-3-2h-4v-1h4v1zM6.5 5h1m2 0h1m2 2h1m1 2h1m-1 4h1m-12 2h1m4 1h1"/><path d="M9.5 16.5h-1v-1h1v1zm-5-1h-1v-1h1v1zm11-2h-1v-1h1v1zm0-4h-1v-1h1v1zm-2-2h-1v-1h1v1zm-3-2h-1v-1h1v1zm-3 0h-1v-1h1v1z" style="fill:#010000"/><path d="M4.5 6h1m0 3h1m4 7h1"/><path d="M11.5 16.5h-1v-1h1v1zm-5-7h-1v-1h1v1zm-1-3h-1v-1h1v1z" style="fill:#000001"/><path d="M5.5 6h1"/><path style="fill:#080808" d="M5.5 5.5h1v1h-1z"/><path d="M6.5 6h1m-3 7h1m-1 3h1"/><path d="M5.5 16.5h-1v-1h1v1zm0-3h-1v-1h1v1zm2-7h-1v-1h1v1z" style="fill:#000101"/><path d="M9.5 6h1m5 6h1m-4 2h1m-8 2h1"/><path d="M6.5 16.5h-1v-1h1v1zm7-2h-1v-1h1v1zm3-2h-1v-1h1v1zm-6-6h-1v-1h1v1z" style="fill:#010100"/><path d="M10.5 6h1m-8 2h1m2 2h1m7 0h2m-2 2h1m-12 2h1m3 2h1"/><path d="M8.5 16.5h-1v-1h1v1zm-4-2h-1v-1h1v1zm11-2h-1v-1h1v1zm1-2h-2v-1h2v1zm-9 0h-1v-1h1v1zm-3-2h-1v-1h1v1zm7-2h-1v-1h1v1z" style="fill:#000100"/><path d="M12.5 8h1"/><path style="fill:#0d0d0d" d="M12.5 7.5h1v1h-1z"/><path d="M13.5 9h1"/><path style="fill:#121313" d="M13.5 8.5h1v1h-1z"/></svg>