<svg shape-rendering="crispEdges" xmlns="http://www.w3.org/2000/svg" viewBox="0 0 20 20" style="enable-background:new 0 0 20 20" xml:space="preserve"><path d="M6 4.5h1m5 0h1m-8 2h1m2 2h1m2 0h1m3 0h1m-2 5h1m-1 1h1m-7 1h1"/><path d="M9 16H8v-1h1v1zm6-1h-1v-2h1v2zm1-6h-1V8h1v1zm-4 0h-1V8h1v1zM9 9H8V8h1v1zM6 7H5V6h1v1zm7-2h-1V4h1v1zM7 5H6V4h1v1z" style="fill:#000100"/><path d="M7 4.5h1m6 1h1m-6 2h1m1 2h1m-3 1h1m-1 1h2m4 0h1m-12 1h1m4 3h2m1 0h1"/><path d="M13 16h-1v-1h1v1zm-2 0H9v-1h2v1zm-6-3H4v-1h1v1zm11-1h-1v-1h1v1zm-5 0H9v-2h1v1h1v1zm1-2h-1V9h1v1zm-2-2H9V7h1v1zm5-2h-1V5h1v1zM8 5H7V4h1v1z" style="fill:#000001"/><path d="M8 4.5h1m-5 2h1m4 0h2m0 1h1m0 1h1m2 4h1"/><path d="M16 13h-1v-1h1v1zm-3-4h-1V8h-1V7H9V6h2v1h1v1h1v1zM5 7H4V6h1v1zm4-2H8V4h1v1z" style="fill:#010000"/><path d="M9 4.5h1m-6 5h1"/><path d="M5 10H4V9h1v1zm5-5H9V4h1v1z" style="fill:#010100"/><path d="M10 4.5h2m1 0h1m-9 1h2m6 0h1m-3 1h1m2 0h1m-11 1h1m3 0h1m3 0h1m2 0h1m-12 1h1m4 0h1m2 1h1m2 0h1m-12 1h1m5 0h2m-8 1h1m-1 2h2m3 0h2m4 0h1m-11 1h2m6 0h1m-8 1h2m3 0h1m1 0h1M14 16h-1v-2h1v2zm-2 0h-1v-1h1v1zm-4 0H6v-1H5v-1H4v-1h2v1h1v1h1v1zm8-2h-1v-1h1v1zm-5 0H9v-1h2v1zm-6-2H4v-2h1v2zm7-1h-2v-1h2v1zm4-1h-1V9h1v1zm-3 0h-1V9h1v1zm-3-1H9V8H8V7h1v1h1v1zM5 9H4V7h1v2zm11-1h-1V7h-1V6h-1V4h1v2h1v1h1v1zm-3 0h-1V7h-1V6h1v1h1v1zM7 6H5V5h2v1zm5-1h-2V4h2v1zM15 6.5h1m-1 4h1"/><path d="M16 11h-1v-1h1v1zm0-4h-1V6h1v1z" style="fill:#000101"/></svg>