<svg shape-rendering="crispEdges" xmlns="http://www.w3.org/2000/svg" viewBox="0 0 20 20" style="enable-background:new 0 0 20 20" xml:space="preserve"><path d="M1.5 3h1m1 0h1m-1 1h1m4 2h2m-6 1h1m1 1h1m-5 2h1m2 2h1"/><path d="M6.5 12.5h-1v-1h1v1zm-3-2h-1v-1h1v1zm4-2h-1v-1h1v1zm-2-1h-1v-1h1v1zm5-1h-2v-1h2v1zm-6-2h-1v-2h1v2zm-2-1h-1v-1h1v1z" style="fill:#000001"/><path d="M2.5 3h1m1 0h3m1 0h2m1 0h1m1 0h1m-1 1h2m-1 1h1m-9 1h2m2 0h3m2 0h1m-1 1h1m-12 1h1m3 0h1m3 0h1m1 0h2m-13 1h1m10 0h1m-10 1h2m2 0h3m1 0h1m-12 1h1m-1 1h1m3 0h1m5 0h2m-13 1h1m10 0h1m-12 1h2m9 0h2m-12 1h1m4 1h1m1 0h2m1 0h2m1 0h3m-15 1h1M4.5 17.5h-1v-1h1v1zm14-1h-3v-1h3v1zm-4 0h-2v-1h2v1zm-3 0h-2v-1h2v1zm-3 0h-1v-1h1v1zm-5-1h-1v-1h-1v-2h1v1h1v2zm11-1h-2v-3h2v1h-1v1h1v1zm-7-2h-1v-1h1v1zm-4 0h-1v-2h1v2zm11-2h-1v-1h1v1zm-2 0h-3v-1h3v1zm-5 0h-2v-1h2v1zm8-1h-1v-2h1v-2h-1v-1h-1v-2h1v1h1v2h1v3h-1v1zm-11 0h-1v-1h1v1zm9-1h-1v-1h1v1zm-4 0h-1v-1h1v1zm-4 0h-1v-1h1v1zm8-2h-3v-1h3v1zm-5 0h-2v-1h2v1zm4-3h-1v-1h1v1zm-2 0h-2v-1h2v1zm-3 0h-3v-1h3v1zm-4 0h-1v-1h1v1zM7.5 3h1m-7 9h1"/><path d="M2.5 12.5h-1v-1h1v1zm6-9h-1v-1h1v1z" style="fill:#010101"/><path d="M10.5 3h1m-8 2h1m3 3h1m1 0h1m1 0h1m-4 4h1m-7 4h2m2 0h1m1 0h1m-5 1h1"/><path d="M5.5 17.5h-1v-1h-2v-1h2v1h1v1zm4-1h-1v-1h1v1zm-2 0h-1v-1h1v1zm2-4h-1v-1h1v1zm3-4h-1v-1h1v1zm-2 0h-1v-1h1v1zm-2 0h-1v-1h1v1zm-4-3h-1v-1h1v1zm7-2h-1v-1h1v1z" style="fill:#000100"/><path d="M12.5 3h1m-11 1h1"/><path d="M3.5 4.5h-1v-1h1v1zm10-1h-1v-1h1v1z" style="fill:#010001"/><path d="M4.5 6h1m3 4h1m5 6h1"/><path d="M15.5 16.5h-1v-1h1v1zm-6-6h-1v-1h1v1zm-4-4h-1v-1h1v1z" style="fill:#000101"/><path d="M3.5 8h1m3 2h1m5 1h1m-7 1h1m5 3h1m-3 1h1"/><path d="M12.5 16.5h-1v-1h1v1zm2-1h-1v-1h1v1zm-6-3h-1v-1h1v1zm6-1h-1v-1h1v1zm-6-1h-1v-1h1v1zm-4-2h-1v-1h1v1z" style="fill:#010000"/><path d="M10.5 8h1"/><path style="fill:#010100" d="M10.5 7.5h1v1h-1z"/><path d="M5.5 17h1m1 0h1m3 0h2"/><path d="M13.5 17.5h-2v-1h2v1zm-5 0h-1v-1h1v1zm-2 0h-1v-1h1v1z" style="fill:#040404"/><path d="M6.5 17h1"/><path style="fill:#050405" d="M6.5 16.5h1v1h-1z"/><path d="M8.5 17h1"/><path style="fill:#040504" d="M8.5 16.5h1v1h-1z"/><path d="M9.5 17h1"/><path style="fill:#050404" d="M9.5 16.5h1v1h-1z"/><path d="M10.5 17h1m5 0h1"/><path d="M17.5 17.5h-1v-1h1v1zm-6 0h-1v-1h1v1z" style="fill:#040405"/><path d="M13.5 17h1"/><path style="fill:#080808" d="M13.5 16.5h1v1h-1z"/><path d="M14.5 17h1M14.5 16.5h1v1h-1zM15.5 17h1"/><path style="fill:#0b0a0a" d="M15.5 16.5h1v1h-1z"/><path d="M17.5 17h1"/><path style="fill:#040505" d="M17.5 16.5h1v1h-1z"/></svg>