<svg shape-rendering="crispEdges" xmlns="http://www.w3.org/2000/svg" viewBox="0 0 20 20" style="enable-background:new 0 0 20 20" xml:space="preserve"><path d="M9.5 4h1m-4 7h1"/><path d="M7.5 11.5h-1v-1h1v1zm3-7h-1v-1h1v1z" style="fill:#010100"/><path d="M9.5 5h1m2 1h1m-4 9h1"/><path d="M10.5 15.5h-1v-1h1v1zm3-9h-1v-1h1v1zm-3-1h-1v-1h1v1z" style="fill:#000100"/><path d="M14.5 5h1m-7 1h1m1 0h1m-4 1h2m1 0h1m3 0h1m-4 1h1m-6 1h1m-3 1h2m7 0h2m-3 1h1m-6 1h1m0 1h1m1 0h2m-2 1h1m-2 2h1M10.5 16.5h-1v-1h1v1zm1-2h-1v-2h2v1h-1v1zm-2-1h-1v-1h-1v-1h1v1h1v1zm4-2h-1v-1h1v1zm2-1h-2v-1h2v1zm-9 0h-2v-1h2v1zm1-1h-1v-1h1v1zm5-1h-1v-1h-1v-2h1v2h1v1zm3-1h-1v-1h1v1zm-6 0h-2v-1h1v-1h1v2zm6-2h-1v-1h1v1zM7.5 8h1m0 6h1"/><path d="M9.5 14.5h-1v-1h1v1zm-1-6h-1v-1h1v1z" style="fill:#000001"/><path d="M12.5 9h1"/><path style="fill:#000101" d="M12.5 8.5h1v1h-1z"/><path d="M11.5 12h1"/><path style="fill:#010000" d="M11.5 11.5h1v1h-1z"/></svg>