<svg shape-rendering="crispEdges" xmlns="http://www.w3.org/2000/svg" viewBox="0 0 20 20" style="enable-background:new 0 0 20 20" xml:space="preserve"><path d="M8.5 15.5h2m-3-1h1m2 0h1m3 0h1m-9-1h1m3 0h1m4 0h1m-13-1h2m5 0h1m1 0h1m2 0h1m-6-1h1m4 0h1m-3-1h1m1 0h1m-3-1h1m-11-1h1m11 0h1m-13-1h1m6 0h1m-5-1h1m3 0h1m-3-2h1m1 0h1M10.5 16h-2v-1h2v1zm5-1h-1v-1h1v1zm-4 0h-1v-1h1v1zm-3 0h-1v-1h1v1zm8-1h-1v-1h1v1zm-5 0h-1v-1h1v1zm-4 0h-1v-1h1v1zm9-1h-1v-1h1v1zm-3 0h-1v-1h1v1zm-2 0h-1v-1h1v1zm-6 0h-2v-1h2v1zm11-1h-1v-1h1v1zm-5 0h-1v-1h1v1zm5-1h-1v-1h1v1zm-2 0h-1v-1h1v1zm0-1h-1V9h1v1zm2-1h-1V8h1v1zm-12 0h-1V8h1v1zm7-1h-1V7h1v1zm-7 0h-1V7h1v1zm7-1h-1V6h1v1zm-4 0h-1V6h1v1zm4-2h-1V4h1v1zm-2 0h-1V4h1v1zM10.5 15.5h1m-8-4h1m9 0h1m-11-2h1m6 0h1m-4-4h1m1-1h1"/><path d="M11.5 16h-1v-1h1v1zm3-4h-1v-1h1v1zm-10 0h-1v-1h1v1zm7-2h-1V9h1v1zm-7 0h-1V9h1v1zm4-4h-1V5h1v1zm2-1h-1V4h1v1z" style="fill:#000001"/><path d="M5.5 12.5h1"/><path style="fill:#000101" d="M5.5 12h1v1h-1z"/><path d="M3.5 10.5h1m11-1h1m-3-1h1m-9-1h1m9-1h1m-2-1h1"/><path d="M4.5 11h-1v-1h1v1zm12-1h-1V9h1v1zm-2-1h-1V8h1v1zm-8-1h-1V7h1v1zm10-1h-1V6h1v1zm-1-1h-1V5h1v1z" style="fill:#000100"/><path d="M10.5 10.5h1m-7-3h1m7 0h1m2 0h1"/><path d="M11.5 11h-1v-1h1v1zm5-3h-1V7h1v1zm-3 0h-1V7h1v1zm-8 0h-1V7h1v1z" style="fill:#010000"/><path d="M10.5 8.5h1m-1-3h1"/><path d="M11.5 9h-1V8h1v1zm0-3h-1V5h1v1z" style="fill:#010100"/></svg>