<svg xmlns="http://www.w3.org/2000/svg" xmlns:xlink="http://www.w3.org/1999/xlink" width="0" height="0" style="display:none" xml:space="preserve">
<svg xmlns="http://www.w3.org/2000/svg" xmlns:xlink="http://www.w3.org/1999/xlink" xml:space="preserve">
<defs>
<symbol id="x" width="10" height="10" viewBox="0 0 20 20" style="enable-background:new 0 0 20 20">
<g fill="currentColor" shape-rendering="crispEdges">
<path d="M3.5 4h2m9 0h1m-12 1h3m9 0h1m-12 1h1m7 0h2m-9 1h2m5 0h2m-8 1h1m4 0h2m-6 1h2m0 1h1m-1 1h3m-6 1h2m3 0h1m-7 1h3m5 0h1m-9 1h2m6 0h2m-11 1h2m7 0h3m-13 1h1m10 0h1M15.5 16.5h-1v-1h-1v-3h1v1h1v1h1v1h-1v1zm-11 0h-1v-1h1v1zm2-1h-2v-1h1v-2h1v-1h2v2h-1v1h-1v1zm6-3h-1v-1h-2v-2h-2v-1h-1v-1h-1v-1h-1v-1h-1v-2h2v1h1v1h-1v1h2v2h2v1h1v1h2v2zm1-4h-2v-1h1v-2h2v2h-1v1zm3-3h-1v-1h-1v-1h1v1h1v1zM15.5 4h1m-2 1h1m-10 1h1m8 0h1m-5 2h1m-1 1h1m-3 2h1m3 2h1m-10 2h1"/><path d="M4.5 15.5h-1v-1h1v1zm9-2h-1v-1h1v1zm-4-2h-1v-1h1v1zm2-2h-1v-2h1v2zm4-3h-1v-2h1v2zm-9 0h-1v-1h1v1zm10-2h-1v-1h1v1z" style="fill:#000000"/><path d="M13.5 5h1m-8 1h1m4 3h1m-2 1h1m-3 2h1m2 1h1"/><path d="M12.5 13.5h-1v-1h1v1zm-3-1h-1v-1h1v1zm2-2h-1v-1h1v1zm1-1h-1v-1h1v1zm-5-3h-1v-1h1v1zm7-1h-1v-1h1v1z" style="fill:#000000"/><path d="M7.5 7h1"/><path style="fill:#000000" d="M7.5 6.5h1v1h-1z"/><path d="M11.5 7h1m-5 1h2m0 1h1m-2 1h1m3 2h1m-9 2h1m7 0h1m-9 2h1m10 0h1"/><path d="M16.5 16.5h-1v-1h1v1zm-11 0h-1v-1h1v1zm8-2h-1v-1h1v1zm-8 0h-1v-1h1v1zm8-2h-1v-1h1v1zm-4-2h-1v-1h1v1zm1-1h-1v-1h-2v-1h2v1h1v1zm2-2h-1v-1h1v1z" style="fill:#000000"/><path d="M7.5 11h1m2 1h1"/><path d="M11.5 12.5h-1v-1h1v1zm-3-1h-1v-1h1v1z" style="fill:#000000"/>
</g>
</symbol>
</defs>
</svg>