<svg aria-hidden="true" style="position: absolute; width: 0; height: 0; overflow: hidden;" version="1.1"
    xmlns="http://www.w3.org/2000/svg"
    xmlns:xlink="http://www.w3.org/1999/xlink">
    <defs>
        <symbol style="fill:currentColor" id="ppi-accessibility" viewBox="0 0 32 32">
            <title>Accessibility Icon with a Person in a Circle</title>
            <path d="M8.8 5.6h1.6zM10.4 13.6h1.6zM20 13.6h1.6zM5.6 15.2h1.6zM18.4 15.2h1.6zM15.2 20h1.6zM8.8 26.4h1.6zM16.8 26.4h1.6z"></path>
            <path d="M18.4 27.2h-1.6v-1.6h1.6v1.6zM10.4 27.2h-1.6v-1.6h1.6v1.6zM16.8 20.8h-1.6v-1.6h1.6v1.6zM20 16h-1.6v-1.6h1.6v1.6zM7.2 16h-1.6v-1.6h1.6v1.6zM21.6 14.4h-1.6v-1.6h1.6v1.6zM12 14.4h-1.6v-1.6h1.6v1.6zM10.4 6.4h-1.6v-1.6h1.6v1.6z"></path>
            <path d="M10.4 5.6h1.6zM13.6 5.6h4.8zM20 5.6h3.2zM7.2 7.2h1.6zM21.6 7.2h1.6zM5.6 8.8h3.2zM15.2 8.8h3.2zM24.8 8.8h1.6zM5.6 10.4h1.6zM13.6 10.4h1.6zM16.8 10.4h1.6zM24.8 10.4h1.6zM15.2 12h3.2zM24.8 12h1.6zM15.2 13.6h1.6zM24.8 13.6h1.6zM13.6 15.2h1.6zM24.8 15.2h1.6zM5.6 16.8h1.6zM24.8 16.8h1.6zM24.8 18.4h1.6zM24.8 20h1.6zM5.6 21.6h1.6zM13.6 21.6h1.6zM24.8 21.6h1.6zM5.6 23.2h3.2zM12 23.2h1.6zM18.4 23.2h1.6zM8.8 24.8h1.6zM21.6 24.8h1.6zM13.6 26.4h3.2zM18.4 26.4h4.8z"></path>
            <path d="M23.2 27.2h-4.8v-1.6h3.2v-1.6h1.6v3.2zM16.8 27.2h-3.2v-1.6h3.2v1.6zM10.4 25.6h-1.6v-1.6h-3.2v-3.2h1.6v1.6h1.6v1.6h1.6v1.6zM20 24h-1.6v-1.6h1.6v1.6zM13.6 24h-1.6v-1.6h1.6v1.6zM26.4 22.4h-1.6v-14.4h1.6v14.4zM15.2 22.4h-1.6v-1.6h1.6v1.6zM7.2 17.6h-1.6v-1.6h1.6v1.6zM15.2 16h-1.6v-1.6h1.6v1.6zM16.8 14.4h-1.6v-3.2h-1.6v-1.6h1.6v1.6h1.6v-1.6h-1.6v-1.6h3.2v4.8h-1.6v1.6zM7.2 11.2h-1.6v-3.2h1.6v-1.6h1.6v3.2h-1.6v1.6zM23.2 8h-1.6v-1.6h-1.6v-1.6h3.2v3.2zM18.4 6.4h-4.8v-1.6h4.8v1.6zM12 6.4h-1.6v-1.6h1.6v1.6z"></path>
            <path d="M12 5.6h1.6zM13.6 8.8h1.6zM5.6 12h1.6zM13.6 12h1.6zM12 15.2h1.6zM15.2 15.2h1.6zM7.2 24.8h1.6zM23.2 24.8h1.6zM10.4 26.4h1.6z"></path>
            <path d="M12 27.2h-1.6v-1.6h1.6v1.6zM24.8 25.6h-1.6v-1.6h1.6v1.6zM8.8 25.6h-1.6v-1.6h1.6v1.6zM16.8 16h-1.6v-1.6h1.6v1.6zM13.6 16h-1.6v-1.6h1.6v1.6zM15.2 12.8h-1.6v-1.6h1.6v1.6zM7.2 12.8h-1.6v-1.6h1.6v1.6zM15.2 9.6h-1.6v-1.6h1.6v1.6zM13.6 6.4h-1.6v-1.6h1.6v1.6z"></path>
            <path d="M18.4 5.6h1.6z"></path>
            <path d="M18.4 4.8h1.6v1.6h-1.6v-1.6z"></path>
            <path d="M8.8 7.2h1.6zM23.2 7.2h1.6zM23.2 8.8h1.6zM5.6 13.6h1.6zM15.2 16.8h1.6zM15.2 18.4h1.6zM5.6 20h1.6zM16.8 21.6h1.6zM12 26.4h1.6z"></path>
            <path d="M13.6 27.2h-1.6v-1.6h1.6v1.6zM18.4 22.4h-1.6v-1.6h1.6v1.6zM7.2 20.8h-1.6v-1.6h1.6v1.6zM16.8 19.2h-1.6v-3.2h1.6v3.2zM7.2 14.4h-1.6v-1.6h1.6v1.6zM24.8 9.6h-1.6v-3.2h1.6v3.2zM10.4 8h-1.6v-1.6h1.6v1.6z"></path>
            <path d="M16.8 15.2h1.6zM5.6 18.4h1.6zM24.8 23.2h1.6z"></path>
            <path d="M26.4 24h-1.6v-1.6h1.6v1.6zM7.2 19.2h-1.6v-1.6h1.6v1.6zM18.4 16h-1.6v-1.6h1.6v1.6z"></path>
            <path d="M23.2 23.2h1.6z"></path>
            <path d="M23.2 22.4h1.6v1.6h-1.6v-1.6z"></path>
        </symbol>
        <symbol style="fill:currentColor" id="ppi-check" viewBox="0 0 32 32">
            <title>A Check Mark</title>
            <path d="M24 8.8h3.2zM24 10.4h1.6zM20.8 12h4.8zM20.8 13.6h3.2zM17.6 15.2h3.2zM4.8 16.8h3.2zM19.2 16.8h1.6zM6.4 18.4h3.2zM14.4 18.4h4.8zM6.4 20h3.2zM12.8 20h3.2zM9.6 21.6h1.6zM12.8 21.6h3.2zM9.6 23.2h4.8z"></path>
            <path d="M14.4 24h-4.8v-3.2h-3.2v-3.2h-1.6v-1.6h3.2v1.6h1.6v3.2h1.6v1.6h1.6v-3.2h1.6v-1.6h4.8v1.6h-3.2v3.2h-1.6v1.6zM20.8 17.6h-1.6v-1.6h-1.6v-1.6h3.2v3.2zM24 14.4h-3.2v-3.2h3.2v-3.2h3.2v1.6h-1.6v3.2h-1.6v1.6z"></path>
            <path d="M22.4 10.4h1.6zM20.8 15.2h1.6zM16 20h1.6zM8 21.6h1.6z"></path>
            <path d="M9.6 22.4h-1.6v-1.6h1.6v1.6zM17.6 20.8h-1.6v-1.6h1.6v1.6zM22.4 16h-1.6v-1.6h1.6v1.6zM24 11.2h-1.6v-1.6h1.6v1.6z"></path>
            <path d="M25.6 10.4h1.6zM4.8 18.4h1.6zM11.2 21.6h1.6z"></path>
            <path d="M12.8 22.4h-1.6v-1.6h1.6v1.6zM6.4 19.2h-1.6v-1.6h1.6v1.6zM27.2 11.2h-1.6v-1.6h1.6v1.6z"></path>
            <path d="M19.2 13.6h1.6zM17.6 16.8h1.6zM9.6 20h1.6z"></path>
            <path d="M11.2 20.8h-1.6v-1.6h1.6v1.6zM19.2 17.6h-1.6v-1.6h1.6v1.6zM20.8 14.4h-1.6v-1.6h1.6v1.6z"></path>
            <path d="M16 16.8h1.6z"></path>
            <path d="M16 16h1.6v1.6h-1.6v-1.6z"></path>
        </symbol>
        <symbol style="fill:currentColor" id="ppi-duck" viewBox="0 0 32 32">
            <title>A rubber duck with its wings tucked against its body</title>
            <path d="M15.2 5.6h4.8zM13.6 7.2h1.6zM23.2 7.2h1.6zM12 8.8h3.2zM23.2 8.8h1.6zM20 10.4h1.6zM23.2 10.4h1.6zM24.8 12h1.6zM12 13.6h1.6zM24.8 13.6h1.6zM4 15.2h1.6zM23.2 15.2h1.6zM7.2 16.8h3.2zM12 16.8h1.6zM21.6 16.8h3.2zM4 18.4h1.6zM23.2 18.4h1.6zM4 20h1.6zM10.4 20h6.4zM10.4 21.6h1.6zM5.6 23.2h1.6zM23.2 23.2h1.6zM21.6 24.8h3.2zM7.2 26.4h1.6zM10.4 26.4h1.6zM21.6 26.4h1.6z"></path>
            <path d="M23.2 27.2h-1.6v-3.2h1.6v-1.6h1.6v3.2h-1.6v1.6zM12 27.2h-1.6v-1.6h1.6v1.6zM8.8 27.2h-1.6v-1.6h1.6v1.6zM7.2 24h-1.6v-1.6h1.6v1.6zM12 22.4h-1.6v-3.2h6.4v1.6h-4.8v1.6zM5.6 20.8h-1.6v-3.2h1.6v3.2zM24.8 19.2h-1.6v-1.6h-1.6v-1.6h1.6v-1.6h1.6v4.8zM13.6 17.6h-1.6v-1.6h1.6v1.6zM10.4 17.6h-3.2v-1.6h3.2v1.6zM5.6 16h-1.6v-1.6h1.6v1.6zM26.4 14.4h-1.6v-3.2h-1.6v-4.8h1.6v4.8h1.6v3.2zM13.6 14.4h-1.6v-1.6h1.6v1.6zM21.6 11.2h-1.6v-1.6h1.6v1.6zM15.2 9.6h-3.2v-1.6h1.6v-1.6h1.6v3.2zM20 6.4h-4.8v-1.6h4.8v1.6z"></path>
            <path d="M20 5.6h1.6z"></path>
            <path d="M20 4.8h1.6v1.6h-1.6v-1.6z"></path>
            <path d="M21.6 5.6h1.6zM21.6 7.2h1.6zM26.4 12h1.6zM21.6 15.2h1.6zM10.4 16.8h1.6zM15.2 16.8h1.6z"></path>
            <path d="M16.8 17.6h-1.6v-1.6h1.6v1.6zM12 17.6h-1.6v-1.6h1.6v1.6zM23.2 16h-1.6v-1.6h1.6v1.6zM28 12.8h-1.6v-1.6h1.6v1.6zM23.2 8h-1.6v-3.2h1.6v3.2z"></path>
            <path d="M15.2 7.2h1.6zM13.6 13.6h1.6zM5.6 15.2h1.6zM13.6 15.2h3.2zM23.2 20h1.6zM4 21.6h1.6zM7.2 24.8h1.6z"></path>
            <path d="M8.8 25.6h-1.6v-1.6h1.6v1.6zM5.6 22.4h-1.6v-1.6h1.6v1.6zM24.8 20.8h-1.6v-1.6h1.6v1.6zM16.8 16h-3.2v-3.2h1.6v1.6h1.6v1.6zM7.2 16h-1.6v-1.6h1.6v1.6zM16.8 8h-1.6v-1.6h1.6v1.6z"></path>
            <path d="M12 10.4h1.6zM13.6 16.8h1.6zM8.8 26.4h1.6z"></path>
            <path d="M10.4 27.2h-1.6v-1.6h1.6v1.6zM15.2 17.6h-1.6v-1.6h1.6v1.6zM13.6 11.2h-1.6v-1.6h1.6v1.6z"></path>
            <path d="M24.8 10.4h1.6zM23.2 21.6h1.6zM4 23.2h1.6z"></path>
            <path d="M5.6 24h-1.6v-1.6h1.6v1.6zM24.8 22.4h-1.6v-1.6h1.6v1.6zM26.4 11.2h-1.6v-1.6h1.6v1.6z"></path>
            <path d="M12 12h1.6z"></path>
            <path d="M12 11.2h1.6v1.6h-1.6v-1.6z"></path>
            <path d="M23.2 13.6h1.6z"></path>
            <path d="M23.2 12.8h1.6v1.6h-1.6v-1.6z"></path>
            <path d="M4 16.8h1.6zM5.6 24.8h1.6z"></path>
            <path d="M7.2 25.6h-1.6v-1.6h1.6v1.6zM5.6 17.6h-1.6v-1.6h1.6v1.6z"></path>
            <path d="M12 26.4h1.6z"></path>
            <path d="M12 25.6h1.6v1.6h-1.6v-1.6z"></path>
            <path d="M13.6 26.4h1.6z"></path>
            <path d="M13.6 25.6h1.6v1.6h-1.6v-1.6z"></path>
            <path d="M15.2 26.4h1.6z"></path>
            <path d="M15.2 25.6h1.6v1.6h-1.6v-1.6z"></path>
            <path d="M16.8 26.4h1.6z"></path>
            <path d="M16.8 25.6h1.6v1.6h-1.6v-1.6z"></path>
            <path d="M18.4 26.4h1.6z"></path>
            <path d="M18.4 25.6h1.6v1.6h-1.6v-1.6z"></path>
            <path d="M20 26.4h1.6z"></path>
            <path d="M20 25.6h1.6v1.6h-1.6v-1.6z"></path>
        </symbol>
        <symbol style="fill:currentColor" id="ppi-more" viewBox="0 0 32 32">
            <title>An ellipse, three dots in a circle</title>
            <path d="M9.6 7.2h4.8zM17.6 7.2h1.6zM8 8.8h1.6zM22.4 8.8h1.6zM6.4 10.4h3.2zM22.4 10.4h3.2zM6.4 12h1.6zM9.6 15.2h1.6zM24 15.2h1.6zM9.6 16.8h3.2zM16 16.8h1.6zM24 16.8h1.6zM6.4 18.4h1.6zM6.4 21.6h3.2zM24 21.6h1.6zM8 23.2h1.6zM20.8 23.2h1.6zM9.6 24.8h3.2zM14.4 24.8h1.6zM19.2 24.8h1.6z"></path>
            <path d="M20.8 25.6h-1.6v-1.6h1.6v1.6zM16 25.6h-1.6v-1.6h1.6v1.6zM12.8 25.6h-3.2v-1.6h-1.6v-1.6h-1.6v-1.6h3.2v3.2h3.2v1.6zM22.4 24h-1.6v-1.6h1.6v1.6zM25.6 22.4h-1.6v-1.6h1.6v1.6zM8 19.2h-1.6v-1.6h1.6v1.6zM25.6 17.6h-1.6v-3.2h1.6v3.2zM17.6 17.6h-1.6v-1.6h1.6v1.6zM12.8 17.6h-3.2v-3.2h1.6v1.6h1.6v1.6zM8 12.8h-1.6v-3.2h1.6v-1.6h1.6v3.2h-1.6v1.6zM25.6 11.2h-3.2v-3.2h1.6v1.6h1.6v1.6zM19.2 8h-1.6v-1.6h1.6v1.6zM14.4 8h-4.8v-1.6h4.8v1.6z"></path>
            <path d="M14.4 7.2h3.2zM19.2 7.2h1.6zM9.6 8.8h1.6zM20.8 8.8h1.6zM24 12h1.6zM20.8 15.2h1.6zM6.4 16.8h1.6zM14.4 16.8h1.6zM19.2 16.8h1.6z"></path>
            <path d="M20.8 17.6h-1.6v-1.6h1.6v1.6zM16 17.6h-1.6v-1.6h1.6v1.6zM8 17.6h-1.6v-1.6h1.6v1.6zM22.4 16h-1.6v-1.6h1.6v1.6zM25.6 12.8h-1.6v-1.6h1.6v1.6zM22.4 9.6h-1.6v-1.6h-1.6v-1.6h1.6v1.6h1.6v1.6zM11.2 9.6h-1.6v-1.6h1.6v1.6zM17.6 8h-3.2v-1.6h3.2v1.6z"></path>
            <path d="M20.8 7.2h1.6zM24 13.6h1.6zM11.2 15.2h1.6zM14.4 15.2h1.6zM19.2 15.2h1.6zM24 18.4h1.6zM12.8 24.8h1.6zM20.8 24.8h1.6z"></path>
            <path d="M22.4 25.6h-1.6v-1.6h1.6v1.6zM14.4 25.6h-1.6v-1.6h1.6v1.6zM25.6 19.2h-1.6v-1.6h1.6v1.6zM20.8 16h-1.6v-1.6h1.6v1.6zM16 16h-1.6v-1.6h1.6v1.6zM12.8 16h-1.6v-1.6h1.6v1.6zM25.6 14.4h-1.6v-1.6h1.6v1.6zM22.4 8h-1.6v-1.6h1.6v1.6z"></path>
            <path d="M6.4 13.6h1.6zM16 15.2h1.6zM20.8 16.8h1.6zM6.4 20h1.6zM24 20h1.6zM9.6 23.2h1.6z"></path>
            <path d="M11.2 24h-1.6v-1.6h1.6v1.6zM25.6 20.8h-1.6v-1.6h1.6v1.6zM8 20.8h-1.6v-1.6h1.6v1.6zM22.4 17.6h-1.6v-1.6h1.6v1.6zM17.6 16h-1.6v-1.6h1.6v1.6zM8 14.4h-1.6v-1.6h1.6v1.6z"></path>
            <path d="M6.4 15.2h1.6zM16 24.8h3.2z"></path>
            <path d="M19.2 25.6h-3.2v-1.6h3.2v1.6zM8 16h-1.6v-1.6h1.6v1.6z"></path>
            <path d="M22.4 21.6h1.6z"></path>
            <path d="M22.4 20.8h1.6v1.6h-1.6v-1.6z"></path>
            <path d="M22.4 23.2h1.6z"></path>
            <path d="M22.4 22.4h1.6v1.6h-1.6v-1.6z"></path>
        </symbol>
        <symbol style="fill:currentColor" id="ppi-info" viewBox="0 0 32 32">
            <title>Info, an I in a circle</title>
            <path d="M9.6 7.2h1.6zM12.8 7.2h1.6zM24 12h1.6zM16 16.8h1.6zM6.4 18.4h1.6zM6.4 20h1.6zM9.6 23.2h1.6zM22.4 23.2h1.6z"></path>
            <path d="M24 24h-1.6v-1.6h1.6v1.6zM11.2 24h-1.6v-1.6h1.6v1.6zM8 20.8h-1.6v-3.2h1.6v3.2zM17.6 17.6h-1.6v-1.6h1.6v1.6zM25.6 12.8h-1.6v-1.6h1.6v1.6zM14.4 8h-1.6v-1.6h1.6v1.6zM11.2 8h-1.6v-1.6h1.6v1.6z"></path>
            <path d="M11.2 7.2h1.6zM14.4 7.2h8zM8 8.8h3.2zM20.8 8.8h3.2zM6.4 10.4h3.2zM14.4 10.4h1.6zM22.4 10.4h3.2zM6.4 12h1.6zM6.4 13.6h1.6zM24 13.6h1.6zM6.4 15.2h1.6zM16 15.2h1.6zM6.4 16.8h1.6zM24 16.8h1.6zM14.4 18.4h3.2zM24 18.4h1.6zM16 20h1.6zM6.4 21.6h1.6zM14.4 21.6h3.2zM22.4 21.6h1.6zM20.8 23.2h1.6zM11.2 24.8h3.2zM16 24.8h1.6z"></path>
            <path d="M17.6 25.6h-1.6v-1.6h1.6v1.6zM14.4 25.6h-3.2v-1.6h3.2v1.6zM22.4 24h-1.6v-1.6h1.6v1.6zM24 22.4h-1.6v-1.6h1.6v1.6zM17.6 22.4h-3.2v-1.6h1.6v-1.6h-1.6v-1.6h3.2v4.8zM8 22.4h-1.6v-1.6h1.6v1.6zM25.6 19.2h-1.6v-3.2h1.6v3.2zM8 17.6h-1.6v-8h1.6v-1.6h3.2v1.6h-1.6v1.6h-1.6v6.4zM17.6 16h-1.6v-1.6h1.6v1.6zM25.6 14.4h-1.6v-1.6h1.6v1.6zM25.6 11.2h-3.2v-1.6h-1.6v-1.6h-6.4v-1.6h8v1.6h1.6v1.6h1.6v1.6zM16 11.2h-1.6v-1.6h1.6v1.6zM12.8 8h-1.6v-1.6h1.6v1.6z"></path>
            <path d="M16 10.4h1.6zM14.4 15.2h1.6zM14.4 16.8h1.6zM24 21.6h1.6zM8 23.2h1.6zM9.6 24.8h1.6zM17.6 24.8h3.2z"></path>
            <path d="M20.8 25.6h-3.2v-1.6h3.2v1.6zM11.2 25.6h-1.6v-1.6h-1.6v-1.6h1.6v1.6h1.6v1.6zM25.6 22.4h-1.6v-1.6h1.6v1.6zM16 17.6h-1.6v-3.2h1.6v3.2zM17.6 11.2h-1.6v-1.6h1.6v1.6z"></path>
            <path d="M14.4 12h1.6zM17.6 21.6h1.6z"></path>
            <path d="M19.2 22.4h-1.6v-1.6h1.6v1.6zM16 12.8h-1.6v-1.6h1.6v1.6z"></path>
            <path d="M16 12h1.6zM12.8 15.2h1.6zM24 15.2h1.6zM14.4 20h1.6zM24 20h1.6zM8 21.6h1.6z"></path>
            <path d="M9.6 22.4h-1.6v-1.6h1.6v1.6zM25.6 20.8h-1.6v-1.6h1.6v1.6zM16 20.8h-1.6v-1.6h1.6v1.6zM25.6 16h-1.6v-1.6h1.6v1.6zM14.4 16h-1.6v-1.6h1.6v1.6zM17.6 12.8h-1.6v-1.6h1.6v1.6z"></path>
            <path d="M14.4 24.8h1.6z"></path>
            <path d="M14.4 24h1.6v1.6h-1.6v-1.6z"></path>
            <path d="M20.8 24.8h1.6z"></path>
            <path d="M20.8 24h1.6v1.6h-1.6v-1.6z"></path>
        </symbol>
        <symbol style="fill:currentColor" id="ppi-lore" viewBox="0 0 32 32">
            <title>A magical lore book, opened, with sparkles emanating from the pages</title>
            <path d="M17.6 7.2h1.6zM24 7.2h1.6zM17.6 8.8h1.6zM22.4 8.8h1.6zM19.2 12h3.2zM6.4 13.6h1.6zM9.6 13.6h3.2zM22.4 13.6h1.6zM4.8 15.2h1.6zM12.8 15.2h3.2zM22.4 15.2h1.6zM25.6 16.8h1.6zM3.2 18.4h3.2zM27.2 18.4h1.6zM17.6 20h1.6zM27.2 20h1.6zM6.4 21.6h1.6zM17.6 21.6h1.6zM24 21.6h3.2zM6.4 23.2h3.2zM11.2 23.2h1.6zM14.4 23.2h3.2zM20.8 23.2h1.6zM8 24.8h1.6z"></path>
            <path d="M9.6 25.6h-1.6v-1.6h-1.6v-3.2h1.6v1.6h1.6v3.2zM22.4 24h-1.6v-1.6h1.6v1.6zM17.6 24h-3.2v-1.6h3.2v1.6zM12.8 24h-1.6v-1.6h1.6v1.6zM27.2 22.4h-3.2v-1.6h3.2v1.6zM19.2 22.4h-1.6v-3.2h1.6v3.2zM28.8 20.8h-1.6v-3.2h-1.6v-1.6h1.6v1.6h1.6v3.2zM6.4 19.2h-3.2v-1.6h3.2v1.6zM24 16h-1.6v-3.2h-3.2v-1.6h3.2v1.6h1.6v3.2zM16 16h-3.2v-1.6h-3.2v-1.6h3.2v1.6h3.2v1.6zM6.4 16h-1.6v-1.6h1.6v1.6zM8 14.4h-1.6v-1.6h1.6v1.6zM24 9.6h-1.6v-1.6h1.6v1.6zM19.2 9.6h-1.6v-3.2h1.6v3.2zM25.6 8h-1.6v-1.6h1.6v1.6z"></path>
            <path d="M17.6 12h1.6zM24 15.2h1.6zM27.2 21.6h1.6zM17.6 23.2h1.6z"></path>
            <path d="M19.2 24h-1.6v-1.6h1.6v1.6zM28.8 22.4h-1.6v-1.6h1.6v1.6zM25.6 16h-1.6v-1.6h1.6v1.6zM19.2 12.8h-1.6v-1.6h1.6v1.6z"></path>
            <path d="M25.6 12h3.2zM8 13.6h1.6zM3.2 16.8h1.6zM16 18.4h1.6zM25.6 18.4h1.6zM16 20h1.6z"></path>
            <path d="M17.6 20.8h-1.6v-3.2h1.6v3.2zM27.2 19.2h-1.6v-1.6h1.6v1.6zM4.8 17.6h-1.6v-1.6h1.6v1.6zM9.6 14.4h-1.6v-1.6h1.6v1.6zM28.8 12.8h-3.2v-1.6h3.2v1.6z"></path>
            <path d="M16 13.6h1.6zM12.8 23.2h1.6zM19.2 23.2h1.6z"></path>
            <path d="M20.8 24h-1.6v-1.6h1.6v1.6zM14.4 24h-1.6v-1.6h1.6v1.6zM17.6 14.4h-1.6v-1.6h1.6v1.6z"></path>
            <path d="M14.4 16.8h1.6zM9.6 24.8h1.6zM17.6 24.8h3.2z"></path>
            <path d="M20.8 25.6h-3.2v-1.6h3.2v1.6zM11.2 25.6h-1.6v-1.6h1.6v1.6zM16 17.6h-1.6v-1.6h1.6v1.6z"></path>
            <path d="M4.8 20h1.6z"></path>
            <path d="M4.8 19.2h1.6v1.6h-1.6v-1.6z"></path>
            <path d="M22.4 21.6h1.6z"></path>
            <path d="M22.4 20.8h1.6v1.6h-1.6v-1.6z"></path>
        </symbol>
        <symbol style="fill:currentColor" id="ppi-map" viewBox="0 0 32 32">
            <title>A open, tri-fold map</title>
            <path d="M8.8 6.4h1.6zM20 9.6h1.6zM5.6 12.8h1.6zM12 14.4h1.6zM5.6 22.4h1.6zM7.2 25.6h1.6z"></path>
            <path d="M8.8 26.4h-1.6v-1.6h1.6v1.6zM7.2 23.2h-1.6v-1.6h1.6v1.6zM13.6 15.2h-1.6v-1.6h1.6v1.6zM7.2 13.6h-1.6v-1.6h1.6v1.6zM21.6 10.4h-1.6v-1.6h1.6v1.6zM10.4 7.2h-1.6v-1.6h1.6v1.6z"></path>
            <path d="M10.4 6.4h1.6z"></path>
            <path d="M10.4 5.6h1.6v1.6h-1.6v-1.6z"></path>
            <path d="M12 6.4h1.6zM16.8 9.6h1.6zM24.8 9.6h1.6zM5.6 16h1.6zM24.8 16h1.6zM12 17.6h1.6zM24.8 17.6h1.6zM5.6 20.8h1.6zM24.8 22.4h1.6zM23.2 24h1.6zM21.6 25.6h1.6z"></path>
            <path d="M23.2 26.4h-1.6v-1.6h1.6v1.6zM24.8 24.8h-1.6v-1.6h1.6v1.6zM26.4 23.2h-1.6v-1.6h1.6v1.6zM7.2 21.6h-1.6v-1.6h1.6v1.6zM26.4 18.4h-1.6v-3.2h1.6v3.2zM13.6 18.4h-1.6v-1.6h1.6v1.6zM7.2 16.8h-1.6v-1.6h1.6v1.6zM26.4 10.4h-1.6v-1.6h1.6v1.6zM18.4 10.4h-1.6v-1.6h1.6v1.6zM13.6 7.2h-1.6v-1.6h1.6v1.6z"></path>
            <path d="M13.6 6.4h1.6zM15.2 8h1.6zM12 9.6h1.6zM18.4 9.6h1.6zM12 12.8h1.6zM5.6 14.4h1.6zM18.4 17.6h1.6zM10.4 24h1.6zM13.6 24h1.6zM15.2 25.6h3.2z"></path>
            <path d="M18.4 26.4h-3.2v-1.6h-1.6v-1.6h1.6v1.6h3.2v1.6zM12 24.8h-1.6v-1.6h1.6v1.6zM20 18.4h-1.6v-1.6h1.6v1.6zM7.2 15.2h-1.6v-1.6h1.6v1.6zM13.6 13.6h-1.6v-1.6h1.6v1.6zM20 10.4h-1.6v-1.6h1.6v1.6zM13.6 10.4h-1.6v-1.6h1.6v1.6zM16.8 8.8h-1.6v-1.6h-1.6v-1.6h1.6v1.6h1.6v1.6z"></path>
            <path d="M15.2 6.4h1.6zM23.2 6.4h1.6zM7.2 8h3.2zM12 8h1.6zM20 8h3.2zM7.2 9.6h1.6zM12 11.2h1.6zM24.8 11.2h1.6zM24.8 12.8h1.6zM18.4 14.4h1.6zM24.8 14.4h1.6zM12 16h1.6zM18.4 16h1.6zM5.6 19.2h1.6zM12 19.2h1.6zM18.4 19.2h1.6zM24.8 19.2h1.6zM12 20.8h1.6zM18.4 20.8h1.6zM24.8 20.8h1.6zM10.4 22.4h4.8zM18.4 22.4h1.6zM23.2 22.4h1.6zM18.4 24h1.6zM5.6 25.6h1.6zM8.8 25.6h1.6z"></path>
            <path d="M10.4 26.4h-1.6v-1.6h1.6v1.6zM7.2 26.4h-1.6v-1.6h1.6v1.6zM20 24.8h-1.6v-6.4h1.6v6.4zM24.8 23.2h-1.6v-1.6h1.6v1.6zM15.2 23.2h-4.8v-1.6h1.6v-3.2h1.6v3.2h1.6v1.6zM26.4 21.6h-1.6v-3.2h1.6v3.2zM7.2 20h-1.6v-1.6h1.6v1.6zM20 16.8h-1.6v-3.2h1.6v3.2zM13.6 16.8h-1.6v-1.6h1.6v1.6zM26.4 15.2h-1.6v-4.8h1.6v4.8zM13.6 12h-1.6v-1.6h1.6v1.6zM8.8 10.4h-1.6v-3.2h3.2v1.6h-1.6v1.6zM23.2 8.8h-3.2v-1.6h3.2v1.6zM13.6 8.8h-1.6v-1.6h1.6v1.6zM24.8 7.2h-1.6v-1.6h1.6v1.6zM16.8 7.2h-1.6v-1.6h1.6v1.6z"></path>
            <path d="M21.6 6.4h1.6zM5.6 9.6h1.6zM18.4 25.6h3.2z"></path>
            <path d="M21.6 26.4h-3.2v-1.6h3.2v1.6zM7.2 10.4h-1.6v-1.6h1.6v1.6zM23.2 7.2h-1.6v-1.6h1.6v1.6z"></path>
            <path d="M24.8 6.4h1.6z"></path>
            <path d="M24.8 5.6h1.6v1.6h-1.6v-1.6z"></path>
            <path d="M16.8 8h1.6z"></path>
            <path d="M16.8 7.2h1.6v1.6h-1.6v-1.6z"></path>
            <path d="M24.8 8h1.6zM15.2 24h1.6z"></path>
            <path d="M16.8 24.8h-1.6v-1.6h1.6v1.6zM26.4 8.8h-1.6v-1.6h1.6v1.6z"></path>
            <path d="M5.6 11.2h1.6z"></path>
            <path d="M5.6 10.4h1.6v1.6h-1.6v-1.6z"></path>
            <path d="M18.4 11.2h1.6zM18.4 12.8h1.6z"></path>
            <path d="M18.4 10.4h1.6v3.2h-1.6v-3.2z"></path>
            <path d="M5.6 17.6h1.6zM5.6 24h1.6z"></path>
            <path d="M7.2 24.8h-1.6v-1.6h1.6v1.6zM7.2 18.4h-1.6v-1.6h1.6v1.6z"></path>
            <path d="M8.8 24h1.6z"></path>
            <path d="M8.8 23.2h1.6v1.6h-1.6v-1.6z"></path>
            <path d="M21.6 24h1.6z"></path>
            <path d="M21.6 23.2h1.6v1.6h-1.6v-1.6z"></path>
        </symbol>
        <symbol style="fill:currentColor" id="ppi-muted" viewBox="0 0 32 32">
            <title>A speaker with a line through it, muted</title>
            <path d="M5.6 6.4h1.6zM7.2 8h1.6zM18.4 8h1.6zM7.2 9.6h4.8zM15.2 9.6h1.6zM8.8 11.2h6.4zM20 11.2h1.6zM8.8 12.8h1.6zM12 12.8h1.6zM20 12.8h1.6zM15.2 14.4h1.6zM20 14.4h1.6zM8.8 16h1.6zM16.8 16h1.6zM18.4 17.6h1.6zM16.8 19.2h4.8zM8.8 20.8h3.2zM21.6 22.4h1.6zM15.2 24h1.6zM23.2 24h3.2zM20 25.6h1.6zM24.8 25.6h1.6z"></path>
            <path d="M26.4 26.4h-1.6v-1.6h-1.6v-1.6h-1.6v-1.6h1.6v1.6h3.2v3.2zM21.6 26.4h-1.6v-1.6h1.6v1.6zM16.8 24.8h-1.6v-1.6h1.6v1.6zM12 21.6h-3.2v-1.6h3.2v1.6zM21.6 20h-4.8v-1.6h1.6v-1.6h-1.6v-1.6h-1.6v-1.6h1.6v1.6h1.6v1.6h1.6v1.6h1.6v1.6zM10.4 16.8h-1.6v-1.6h1.6v1.6zM21.6 15.2h-1.6v-4.8h1.6v4.8zM13.6 13.6h-1.6v-1.6h-1.6v1.6h-1.6v-3.2h-1.6v-3.2h-1.6v-1.6h1.6v1.6h1.6v1.6h3.2v1.6h3.2v1.6h-1.6v1.6zM16.8 10.4h-1.6v-1.6h1.6v1.6zM20 8.8h-1.6v-1.6h1.6v1.6z"></path>
            <path d="M7.2 6.4h1.6zM13.6 14.4h1.6zM8.8 17.6h1.6zM8.8 19.2h1.6zM18.4 20.8h3.2zM21.6 24h1.6zM18.4 25.6h1.6zM23.2 25.6h1.6z"></path>
            <path d="M24.8 26.4h-1.6v-1.6h-1.6v-1.6h1.6v1.6h1.6v1.6zM20 26.4h-1.6v-1.6h1.6v1.6zM21.6 21.6h-3.2v-1.6h3.2v1.6zM10.4 20h-1.6v-3.2h1.6v3.2zM15.2 15.2h-1.6v-1.6h1.6v1.6zM8.8 7.2h-1.6v-1.6h1.6v1.6z"></path>
            <path d="M5.6 8h1.6zM16.8 8h1.6zM13.6 16h1.6zM20 16h1.6zM12 20.8h1.6zM21.6 20.8h1.6z"></path>
            <path d="M23.2 21.6h-1.6v-1.6h1.6v1.6zM13.6 21.6h-1.6v-1.6h1.6v1.6zM21.6 16.8h-1.6v-1.6h1.6v1.6zM15.2 16.8h-1.6v-1.6h1.6v1.6zM18.4 8.8h-1.6v-1.6h1.6v1.6zM7.2 8.8h-1.6v-1.6h1.6v1.6z"></path>
            <path d="M8.8 8h1.6zM10.4 12.8h1.6zM13.6 12.8h1.6zM8.8 14.4h1.6zM15.2 16h1.6zM15.2 17.6h3.2zM13.6 22.4h1.6zM23.2 22.4h1.6zM20 24h1.6zM16.8 25.6h1.6z"></path>
            <path d="M18.4 26.4h-1.6v-1.6h1.6v1.6zM21.6 24.8h-1.6v-1.6h1.6v1.6zM24.8 23.2h-1.6v-1.6h1.6v1.6zM15.2 23.2h-1.6v-1.6h1.6v1.6zM18.4 18.4h-3.2v-3.2h1.6v1.6h1.6v1.6zM10.4 15.2h-1.6v-1.6h1.6v1.6zM15.2 13.6h-1.6v-1.6h1.6v1.6zM12 13.6h-1.6v-1.6h1.6v1.6zM10.4 8.8h-1.6v-1.6h1.6v1.6z"></path>
            <path d="M20 8h1.6z"></path>
            <path d="M20 7.2h1.6v1.6h-1.6v-1.6z"></path>
            <path d="M20 9.6h1.6zM20 17.6h1.6zM20 22.4h1.6z"></path>
            <path d="M21.6 23.2h-1.6v-1.6h1.6v1.6zM21.6 18.4h-1.6v-1.6h1.6v1.6zM21.6 10.4h-1.6v-1.6h1.6v1.6z"></path>
        </symbol>
        <symbol style="fill:currentColor" id="ppi-options" viewBox="0 0 32 32">
            <title>Three sliders with various options selected</title>
            <path d="M6.4 7.2h1.6zM20.8 8.8h1.6zM22.4 13.6h1.6zM16 15.2h1.6zM20.8 18.4h1.6zM6.4 20h3.2zM12.8 21.6h1.6zM20.8 21.6h1.6zM11.2 23.2h1.6zM16 23.2h3.2z"></path>
            <path d="M19.2 24h-3.2v-1.6h3.2v1.6zM12.8 24h-1.6v-1.6h1.6v1.6zM22.4 22.4h-1.6v-1.6h1.6v1.6zM14.4 22.4h-1.6v-1.6h1.6v1.6zM9.6 20.8h-3.2v-1.6h3.2v1.6zM22.4 19.2h-1.6v-1.6h1.6v1.6zM17.6 16h-1.6v-1.6h1.6v1.6zM24 14.4h-1.6v-1.6h1.6v1.6zM22.4 9.6h-1.6v-1.6h1.6v1.6zM8 8h-1.6v-1.6h1.6v1.6z"></path>
            <path d="M8 7.2h4.8zM6.4 8.8h1.6zM11.2 8.8h3.2zM16 8.8h4.8zM22.4 8.8h3.2zM11.2 10.4h4.8zM17.6 10.4h4.8zM24 10.4h1.6zM8 12h4.8zM20.8 13.6h1.6zM24 13.6h1.6zM6.4 15.2h3.2zM11.2 15.2h1.6zM14.4 15.2h1.6zM17.6 15.2h1.6zM6.4 16.8h3.2zM11.2 16.8h9.6zM24 16.8h1.6zM19.2 18.4h1.6zM22.4 18.4h3.2zM9.6 20h1.6zM6.4 21.6h1.6zM11.2 21.6h1.6zM14.4 21.6h6.4zM22.4 21.6h1.6zM6.4 23.2h1.6zM12.8 23.2h1.6zM19.2 23.2h6.4zM6.4 24.8h6.4z"></path>
            <path d="M12.8 25.6h-6.4v-4.8h1.6v3.2h4.8v1.6zM25.6 24h-6.4v-1.6h-4.8v-1.6h6.4v1.6h1.6v-1.6h1.6v1.6h1.6v1.6zM14.4 24h-1.6v-1.6h-1.6v-1.6h-1.6v-1.6h1.6v1.6h1.6v1.6h1.6v1.6zM25.6 19.2h-3.2v-1.6h1.6v-1.6h1.6v3.2zM20.8 19.2h-1.6v-1.6h-8v-3.2h1.6v1.6h1.6v-1.6h1.6v1.6h1.6v-1.6h1.6v1.6h1.6v3.2zM9.6 17.6h-3.2v-3.2h3.2v3.2zM25.6 14.4h-1.6v-1.6h1.6v1.6zM22.4 14.4h-1.6v-1.6h1.6v1.6zM12.8 12.8h-4.8v-1.6h3.2v-3.2h-3.2v-1.6h4.8v1.6h1.6v1.6h1.6v1.6h-3.2v1.6zM25.6 11.2h-1.6v-1.6h-1.6v-1.6h3.2v3.2zM22.4 11.2h-4.8v-1.6h-1.6v-1.6h4.8v1.6h1.6v1.6zM8 9.6h-1.6v-1.6h1.6v1.6z"></path>
            <path d="M14.4 8.8h1.6zM9.6 16.8h1.6zM11.2 20h1.6zM24 21.6h1.6z"></path>
            <path d="M25.6 22.4h-1.6v-1.6h1.6v1.6zM12.8 20.8h-1.6v-1.6h1.6v1.6zM11.2 17.6h-1.6v-1.6h1.6v1.6zM16 9.6h-1.6v-1.6h1.6v1.6z"></path>
            <path d="M6.4 10.4h1.6zM22.4 10.4h1.6zM6.4 12h1.6zM19.2 13.6h1.6zM9.6 15.2h1.6zM12.8 15.2h1.6zM24 15.2h1.6z"></path>
            <path d="M25.6 16h-1.6v-1.6h1.6v1.6zM14.4 16h-1.6v-1.6h1.6v1.6zM11.2 16h-1.6v-1.6h1.6v1.6zM20.8 14.4h-1.6v-1.6h1.6v1.6zM8 12.8h-1.6v-3.2h1.6v3.2zM24 11.2h-1.6v-1.6h1.6v1.6z"></path>
            <path d="M16 10.4h1.6zM19.2 15.2h1.6zM14.4 23.2h1.6z"></path>
            <path d="M16 24h-1.6v-1.6h1.6v1.6zM20.8 16h-1.6v-1.6h1.6v1.6zM17.6 11.2h-1.6v-1.6h1.6v1.6z"></path>
        </symbol>
        <symbol style="fill:currentColor" id="ppi-person" viewBox="0 0 32 32">
            <title>A silhouette of a person</title>
            <path d="M12 5.6h1.6z"></path>
            <path d="M12 4.8h1.6v1.6h-1.6v-1.6z"></path>
            <path d="M13.6 5.6h4.8zM10.4 7.2h1.6zM20 10.4h1.6zM20 12h1.6zM10.4 13.6h1.6zM12 15.2h3.2zM18.4 15.2h1.6zM12 18.4h3.2zM18.4 18.4h1.6zM7.2 20h3.2zM23.2 20h1.6zM23.2 21.6h3.2zM5.6 23.2h1.6zM24.8 23.2h1.6zM24.8 24.8h1.6zM7.2 26.4h3.2zM12 26.4h8zM23.2 26.4h1.6z"></path>
            <path d="M24.8 27.2h-1.6v-1.6h1.6v1.6zM20 27.2h-8v-1.6h8v1.6zM10.4 27.2h-3.2v-1.6h3.2v1.6zM26.4 25.6h-1.6v-3.2h-1.6v-3.2h1.6v1.6h1.6v4.8zM7.2 24h-1.6v-1.6h1.6v1.6zM10.4 20.8h-3.2v-1.6h3.2v1.6zM20 19.2h-1.6v-1.6h1.6v1.6zM15.2 19.2h-3.2v-1.6h3.2v1.6zM20 16h-1.6v-1.6h1.6v1.6zM15.2 16h-3.2v-1.6h-1.6v-1.6h1.6v1.6h3.2v1.6zM21.6 12.8h-1.6v-3.2h1.6v3.2zM12 8h-1.6v-1.6h1.6v1.6zM18.4 6.4h-4.8v-1.6h4.8v1.6z"></path>
            <path d="M18.4 5.6h1.6zM10.4 10.4h1.6zM12 13.6h1.6zM18.4 13.6h1.6zM16.8 15.2h1.6zM10.4 18.4h1.6zM16.8 18.4h1.6zM21.6 18.4h1.6zM5.6 21.6h1.6zM21.6 26.4h1.6z"></path>
            <path d="M23.2 27.2h-1.6v-1.6h1.6v1.6zM7.2 22.4h-1.6v-1.6h1.6v1.6zM23.2 19.2h-1.6v-1.6h1.6v1.6zM18.4 19.2h-1.6v-1.6h1.6v1.6zM12 19.2h-1.6v-1.6h1.6v1.6zM18.4 16h-1.6v-1.6h1.6v1.6zM20 14.4h-1.6v-1.6h1.6v1.6zM13.6 14.4h-1.6v-1.6h1.6v1.6zM12 11.2h-1.6v-1.6h1.6v1.6zM20 6.4h-1.6v-1.6h1.6v1.6z"></path>
            <path d="M12 7.2h1.6zM10.4 8.8h1.6zM20 8.8h1.6zM10.4 12h1.6zM20 18.4h1.6zM20 26.4h1.6zM24.8 26.4h1.6z"></path>
            <path d="M26.4 27.2h-1.6v-1.6h1.6v1.6zM21.6 27.2h-1.6v-1.6h1.6v1.6zM21.6 19.2h-1.6v-1.6h1.6v1.6zM12 12.8h-1.6v-1.6h1.6v1.6zM21.6 9.6h-1.6v-1.6h1.6v1.6zM12 9.6h-1.6v-1.6h1.6v1.6zM13.6 8h-1.6v-1.6h1.6v1.6z"></path>
            <path d="M18.4 7.2h1.6zM5.6 24.8h1.6z"></path>
            <path d="M7.2 25.6h-1.6v-1.6h1.6v1.6zM20 8h-1.6v-1.6h1.6v1.6z"></path>
            <path d="M20 7.2h1.6z"></path>
            <path d="M20 6.4h1.6v1.6h-1.6v-1.6z"></path>
            <path d="M20 13.6h1.6zM8.8 18.4h1.6zM10.4 26.4h1.6z"></path>
            <path d="M12 27.2h-1.6v-1.6h1.6v1.6zM10.4 19.2h-1.6v-1.6h1.6v1.6zM21.6 14.4h-1.6v-1.6h1.6v1.6z"></path>
            <path d="M15.2 15.2h1.6zM15.2 18.4h1.6zM7.2 21.6h1.6z"></path>
            <path d="M8.8 22.4h-1.6v-1.6h1.6v1.6zM16.8 19.2h-1.6v-1.6h1.6v1.6zM16.8 16h-1.6v-1.6h1.6v1.6z"></path>
            <path d="M21.6 20h1.6zM5.6 26.4h1.6z"></path>
            <path d="M7.2 27.2h-1.6v-1.6h1.6v1.6zM23.2 20.8h-1.6v-1.6h1.6v1.6z"></path>
        </symbol>
        <symbol style="fill:currentColor" id="ppi-play" viewBox="0 0 32 32">
            <title>A play symbol in a circle</title>
            <path d="M9.6 6.4h3.2zM14.4 6.4h4.8zM8 8h1.6zM22.4 8h1.6zM6.4 9.6h3.2zM22.4 9.6h3.2zM6.4 11.2h1.6zM12.8 11.2h1.6zM24 11.2h1.6zM6.4 12.8h1.6zM14.4 12.8h1.6zM6.4 14.4h1.6zM14.4 14.4h1.6zM17.6 14.4h1.6zM12.8 16h1.6zM16 16h4.8zM14.4 17.6h3.2zM12.8 19.2h4.8zM24 19.2h1.6zM14.4 20.8h1.6zM6.4 22.4h3.2zM22.4 22.4h3.2zM20.8 24h3.2zM9.6 25.6h12.8z"></path>
            <path d="M22.4 26.4h-12.8v-1.6h11.2v-1.6h1.6v-1.6h3.2v1.6h-1.6v1.6h-1.6v1.6zM9.6 23.2h-3.2v-1.6h3.2v1.6zM16 21.6h-1.6v-1.6h-1.6v-1.6h1.6v-1.6h-1.6v-1.6h1.6v1.6h1.6v-1.6h-1.6v-3.2h-1.6v-1.6h1.6v1.6h1.6v3.2h1.6v-1.6h1.6v1.6h1.6v1.6h-3.2v3.2h-1.6v1.6zM25.6 20h-1.6v-1.6h1.6v1.6zM8 15.2h-1.6v-6.4h1.6v-1.6h1.6v3.2h-1.6v4.8zM25.6 12h-1.6v-1.6h-1.6v-3.2h1.6v1.6h1.6v3.2zM19.2 7.2h-4.8v-1.6h4.8v1.6zM12.8 7.2h-3.2v-1.6h3.2v1.6z"></path>
            <path d="M12.8 6.4h1.6zM20.8 6.4h1.6zM9.6 8h1.6zM16 12.8h1.6zM24 12.8h1.6zM24 14.4h1.6zM6.4 17.6h1.6zM17.6 17.6h1.6zM24 17.6h1.6zM6.4 19.2h1.6z"></path>
            <path d="M8 20h-1.6v-3.2h1.6v3.2zM25.6 18.4h-1.6v-1.6h1.6v1.6zM19.2 18.4h-1.6v-1.6h1.6v1.6zM25.6 15.2h-1.6v-3.2h1.6v3.2zM17.6 13.6h-1.6v-1.6h1.6v1.6zM11.2 8.8h-1.6v-1.6h1.6v1.6zM22.4 7.2h-1.6v-1.6h1.6v1.6zM14.4 7.2h-1.6v-1.6h1.6v1.6z"></path>
            <path d="M19.2 6.4h1.6zM12.8 14.4h1.6zM6.4 16h1.6zM24 16h1.6zM8 24h1.6z"></path>
            <path d="M9.6 24.8h-1.6v-1.6h1.6v1.6zM25.6 16.8h-1.6v-1.6h1.6v1.6zM8 16.8h-1.6v-1.6h1.6v1.6zM14.4 15.2h-1.6v-1.6h1.6v1.6zM20.8 7.2h-1.6v-1.6h1.6v1.6z"></path>
            <path d="M20.8 8h1.6zM14.4 11.2h1.6zM16 14.4h1.6zM14.4 16h1.6zM12.8 17.6h1.6zM6.4 20.8h1.6zM12.8 20.8h1.6z"></path>
            <path d="M14.4 21.6h-1.6v-1.6h1.6v1.6zM8 21.6h-1.6v-1.6h1.6v1.6zM14.4 18.4h-1.6v-1.6h1.6v1.6zM16 16.8h-1.6v-1.6h1.6v1.6zM17.6 15.2h-1.6v-1.6h1.6v1.6zM16 12h-1.6v-1.6h1.6v1.6zM22.4 8.8h-1.6v-1.6h1.6v1.6z"></path>
            <path d="M12.8 12.8h1.6zM24 20.8h1.6zM9.6 24h1.6z"></path>
            <path d="M11.2 24.8h-1.6v-1.6h1.6v1.6zM25.6 21.6h-1.6v-1.6h1.6v1.6zM14.4 13.6h-1.6v-1.6h1.6v1.6z"></path>
        </symbol>
        <symbol style="fill:currentColor" id="ppi-puzzle" viewBox="0 0 32 32">
            <title>A jigsaw puzzle piece</title>
            <path d="M10.4 6.4h6.4zM5.6 9.6h1.6zM18.4 9.6h3.2zM5.6 11.2h1.6zM5.6 14.4h3.2zM20 14.4h1.6zM8.8 16h1.6zM10.4 17.6h1.6zM24.8 17.6h1.6zM8.8 19.2h3.2zM5.6 20.8h1.6zM8.8 20.8h1.6zM20 20.8h3.2zM20 24h1.6zM5.6 25.6h1.6zM10.4 25.6h1.6zM15.2 25.6h1.6zM18.4 25.6h3.2z"></path>
            <path d="M21.6 26.4h-3.2v-1.6h1.6v-1.6h1.6v3.2zM16.8 26.4h-1.6v-1.6h1.6v1.6zM12 26.4h-1.6v-1.6h1.6v1.6zM7.2 26.4h-1.6v-1.6h1.6v1.6zM23.2 21.6h-3.2v-1.6h3.2v1.6zM10.4 21.6h-1.6v-3.2h1.6v-1.6h-1.6v-1.6h-3.2v-1.6h3.2v1.6h1.6v1.6h1.6v3.2h-1.6v1.6zM7.2 21.6h-1.6v-1.6h1.6v1.6zM26.4 18.4h-1.6v-1.6h1.6v1.6zM21.6 15.2h-1.6v-1.6h1.6v1.6zM7.2 12h-1.6v-3.2h1.6v3.2zM21.6 10.4h-3.2v-1.6h3.2v1.6zM16.8 7.2h-6.4v-1.6h6.4v1.6z"></path>
            <path d="M10.4 8h1.6zM15.2 8h1.6zM20 11.2h1.6zM23.2 14.4h1.6zM23.2 20.8h1.6zM5.6 24h1.6zM13.6 25.6h1.6z"></path>
            <path d="M15.2 26.4h-1.6v-1.6h1.6v1.6zM7.2 24.8h-1.6v-1.6h1.6v1.6zM24.8 21.6h-1.6v-1.6h1.6v1.6zM24.8 15.2h-1.6v-1.6h1.6v1.6zM21.6 12h-1.6v-1.6h1.6v1.6zM16.8 8.8h-1.6v-1.6h1.6v1.6zM12 8.8h-1.6v-1.6h1.6v1.6z"></path>
            <path d="M7.2 9.6h1.6zM8.8 14.4h1.6zM16.8 25.6h1.6z"></path>
            <path d="M18.4 26.4h-1.6v-1.6h1.6v1.6zM10.4 15.2h-1.6v-1.6h1.6v1.6zM8.8 10.4h-1.6v-1.6h1.6v1.6z"></path>
            <path d="M8.8 9.6h1.6z"></path>
            <path d="M8.8 8.8h1.6v1.6h-1.6v-1.6z"></path>
            <path d="M10.4 9.6h1.6zM7.2 20.8h1.6zM7.2 25.6h1.6z"></path>
            <path d="M8.8 26.4h-1.6v-1.6h1.6v1.6zM8.8 21.6h-1.6v-1.6h1.6v1.6zM12 10.4h-1.6v-1.6h1.6v1.6z"></path>
            <path d="M15.2 9.6h1.6zM24.8 19.2h1.6zM20 22.4h1.6zM8.8 25.6h1.6z"></path>
            <path d="M10.4 26.4h-1.6v-1.6h1.6v1.6zM21.6 23.2h-1.6v-1.6h1.6v1.6zM26.4 20h-1.6v-1.6h1.6v1.6zM16.8 10.4h-1.6v-1.6h1.6v1.6z"></path>
            <path d="M16.8 9.6h1.6zM5.6 12.8h1.6zM10.4 16h1.6zM23.2 16h3.2zM23.2 19.2h1.6zM5.6 22.4h1.6zM12 25.6h1.6z"></path>
            <path d="M13.6 26.4h-1.6v-1.6h1.6v1.6zM7.2 23.2h-1.6v-1.6h1.6v1.6zM24.8 20h-1.6v-1.6h1.6v1.6zM26.4 16.8h-3.2v-1.6h3.2v1.6zM12 16.8h-1.6v-1.6h1.6v1.6zM7.2 13.6h-1.6v-1.6h1.6v1.6zM18.4 10.4h-1.6v-1.6h1.6v1.6z"></path>
            <path d="M20 12.8h1.6z"></path>
            <path d="M20 12h1.6v1.6h-1.6v-1.6z"></path>
            <path d="M21.6 14.4h1.6z"></path>
            <path d="M21.6 13.6h1.6v1.6h-1.6v-1.6z"></path>
        </symbol>
        <symbol style="fill:currentColor" id="ppi-question-mark" viewBox="0 0 32 32">
            <title>A question mark in a circle</title>
            <path d="M9.6 7.2h1.6zM19.2 7.2h1.6zM8 10.4h1.6zM12.8 13.6h1.6zM17.6 13.6h1.6zM24 13.6h1.6zM22.4 21.6h1.6zM22.4 23.2h1.6zM12.8 24.8h1.6z"></path>
            <path d="M14.4 25.6h-1.6v-1.6h1.6v1.6zM24 24h-1.6v-3.2h1.6v3.2zM25.6 14.4h-1.6v-1.6h1.6v1.6zM19.2 14.4h-1.6v-1.6h1.6v1.6zM14.4 14.4h-1.6v-1.6h1.6v1.6zM9.6 11.2h-1.6v-1.6h1.6v1.6zM20.8 8h-1.6v-1.6h1.6v1.6zM11.2 8h-1.6v-1.6h1.6v1.6z"></path>
            <path d="M11.2 7.2h1.6zM22.4 8.8h1.6zM14.4 12h1.6zM17.6 15.2h1.6zM14.4 16.8h1.6zM14.4 18.4h3.2zM24 18.4h1.6zM6.4 20h1.6zM14.4 24.8h3.2zM19.2 24.8h1.6z"></path>
            <path d="M20.8 25.6h-1.6v-1.6h1.6v1.6zM17.6 25.6h-3.2v-1.6h3.2v1.6zM8 20.8h-1.6v-1.6h1.6v1.6zM25.6 19.2h-1.6v-1.6h1.6v1.6zM17.6 19.2h-3.2v-3.2h1.6v1.6h1.6v1.6zM19.2 16h-1.6v-1.6h1.6v1.6zM16 12.8h-1.6v-1.6h1.6v1.6zM24 9.6h-1.6v-1.6h1.6v1.6zM12.8 8h-1.6v-1.6h1.6v1.6z"></path>
            <path d="M12.8 7.2h1.6zM6.4 10.4h1.6zM14.4 10.4h3.2zM17.6 12h1.6zM19.2 13.6h1.6zM24 20h1.6z"></path>
            <path d="M25.6 20.8h-1.6v-1.6h1.6v1.6zM20.8 14.4h-1.6v-1.6h-1.6v-1.6h-3.2v-1.6h3.2v1.6h1.6v1.6h1.6v1.6zM8 11.2h-1.6v-1.6h1.6v1.6zM14.4 8h-1.6v-1.6h1.6v1.6z"></path>
            <path d="M14.4 7.2h1.6zM6.4 15.2h1.6z"></path>
            <path d="M8 16h-1.6v-1.6h1.6v1.6zM16 8h-1.6v-1.6h1.6v1.6z"></path>
            <path d="M16 7.2h3.2zM20.8 7.2h1.6zM8 8.8h3.2zM20.8 8.8h1.6zM17.6 10.4h1.6zM22.4 10.4h1.6zM6.4 12h1.6zM12.8 12h1.6zM19.2 12h1.6zM24 12h1.6zM6.4 13.6h1.6zM14.4 13.6h1.6zM19.2 15.2h1.6zM24 15.2h1.6zM6.4 16.8h1.6zM16 16.8h3.2zM6.4 18.4h1.6zM6.4 21.6h3.2zM14.4 21.6h3.2zM24 21.6h1.6zM8 23.2h3.2zM20.8 23.2h1.6zM9.6 24.8h3.2zM17.6 24.8h1.6zM20.8 24.8h1.6z"></path>
            <path d="M22.4 25.6h-1.6v-3.2h1.6v3.2zM19.2 25.6h-1.6v-1.6h1.6v1.6zM12.8 25.6h-3.2v-1.6h-1.6v-1.6h-1.6v-1.6h3.2v1.6h1.6v1.6h1.6v1.6zM25.6 22.4h-1.6v-1.6h1.6v1.6zM17.6 22.4h-3.2v-1.6h3.2v1.6zM8 19.2h-1.6v-3.2h1.6v3.2zM19.2 17.6h-3.2v-1.6h3.2v1.6zM25.6 16h-1.6v-1.6h1.6v1.6zM20.8 16h-1.6v-1.6h1.6v1.6zM16 14.4h-1.6v-1.6h-1.6v-1.6h1.6v1.6h1.6v1.6zM8 14.4h-1.6v-3.2h1.6v3.2zM25.6 12.8h-1.6v-1.6h-1.6v-1.6h-1.6v-3.2h1.6v3.2h1.6v1.6h1.6v1.6zM20.8 12.8h-1.6v-1.6h-1.6v-1.6h1.6v1.6h1.6v1.6zM11.2 9.6h-3.2v-1.6h3.2v1.6zM19.2 8h-3.2v-1.6h3.2v1.6z"></path>
            <path d="M24 10.4h1.6zM24 16.8h1.6z"></path>
            <path d="M25.6 17.6h-1.6v-1.6h1.6v1.6zM25.6 11.2h-1.6v-1.6h1.6v1.6z"></path>
        </symbol>
        <symbol style="fill:currentColor" id="ppi-scroll" viewBox="0 0 32 32">
            <title>A parchment scroll with writing</title>
            <path d="M2.4 4.8h1.6zM5.6 4.8h1.6zM5.6 6.4h1.6zM13.6 9.6h3.2zM7.2 11.2h1.6zM10.4 12.8h1.6zM4 16h1.6zM8.8 19.2h1.6z"></path>
            <path d="M10.4 20h-1.6v-1.6h1.6v1.6zM5.6 16.8h-1.6v-1.6h1.6v1.6zM12 13.6h-1.6v-1.6h1.6v1.6zM8.8 12h-1.6v-1.6h1.6v1.6zM16.8 10.4h-3.2v-1.6h3.2v1.6zM7.2 7.2h-1.6v-3.2h1.6v3.2zM4 5.6h-1.6v-1.6h1.6v1.6z"></path>
            <path d="M4 4.8h1.6zM7.2 4.8h4.8zM13.6 4.8h3.2zM18.4 4.8h1.6zM21.6 4.8h1.6zM21.6 6.4h3.2zM23.2 8h1.6zM10.4 9.6h3.2zM16.8 9.6h4.8zM24.8 9.6h1.6zM24.8 11.2h1.6zM7.2 12.8h1.6zM13.6 12.8h1.6zM20 12.8h1.6zM23.2 12.8h3.2zM5.6 14.4h1.6zM23.2 14.4h1.6zM8.8 16h3.2zM15.2 16h4.8zM21.6 16h1.6zM4 17.6h1.6zM4 19.2h1.6zM10.4 19.2h1.6zM20 19.2h3.2zM2.4 20.8h1.6zM20 20.8h1.6zM2.4 22.4h3.2zM20 22.4h3.2zM4 24h1.6zM12 25.6h1.6zM15.2 25.6h3.2zM20 25.6h3.2zM24.8 25.6h4.8zM5.6 27.2h1.6z"></path>
            <path d="M7.2 28h-1.6v-1.6h1.6v1.6zM29.6 26.4h-4.8v-1.6h4.8v1.6zM23.2 26.4h-3.2v-1.6h3.2v1.6zM18.4 26.4h-3.2v-1.6h3.2v1.6zM13.6 26.4h-1.6v-1.6h1.6v1.6zM5.6 24.8h-1.6v-1.6h-1.6v-3.2h1.6v1.6h1.6v3.2zM23.2 23.2h-3.2v-4.8h3.2v1.6h-1.6v1.6h1.6v1.6zM12 20h-1.6v-1.6h1.6v1.6zM5.6 20h-1.6v-3.2h1.6v3.2zM23.2 16.8h-1.6v-1.6h1.6v1.6zM20 16.8h-4.8v-1.6h4.8v1.6zM12 16.8h-3.2v-1.6h3.2v1.6zM24.8 15.2h-1.6v-3.2h1.6v-3.2h-1.6v-1.6h-1.6v-3.2h1.6v1.6h1.6v3.2h1.6v4.8h-1.6v1.6zM7.2 15.2h-1.6v-1.6h1.6v1.6zM21.6 13.6h-1.6v-1.6h1.6v1.6zM15.2 13.6h-1.6v-1.6h1.6v1.6zM8.8 13.6h-1.6v-1.6h1.6v1.6zM21.6 10.4h-4.8v-1.6h4.8v1.6zM13.6 10.4h-3.2v-1.6h3.2v1.6zM20 5.6h-1.6v-1.6h1.6v1.6zM16.8 5.6h-3.2v-1.6h3.2v1.6zM12 5.6h-4.8v-1.6h4.8v1.6zM5.6 5.6h-1.6v-1.6h1.6v1.6z"></path>
            <path d="M12 4.8h1.6zM2.4 19.2h1.6z"></path>
            <path d="M4 20h-1.6v-1.6h1.6v1.6zM13.6 5.6h-1.6v-1.6h1.6v1.6z"></path>
            <path d="M16.8 4.8h1.6zM5.6 8h1.6zM12 12.8h1.6zM15.2 12.8h1.6zM18.4 12.8h1.6zM13.6 19.2h1.6zM4 25.6h3.2zM10.4 25.6h1.6zM13.6 25.6h1.6zM7.2 27.2h1.6z"></path>
            <path d="M8.8 28h-1.6v-1.6h-3.2v-1.6h3.2v1.6h1.6v1.6zM15.2 26.4h-1.6v-1.6h1.6v1.6zM12 26.4h-1.6v-1.6h1.6v1.6zM15.2 20h-1.6v-1.6h1.6v1.6zM20 13.6h-1.6v-1.6h1.6v1.6zM16.8 13.6h-1.6v-1.6h1.6v1.6zM13.6 13.6h-1.6v-1.6h1.6v1.6zM7.2 8.8h-1.6v-1.6h1.6v1.6zM18.4 5.6h-1.6v-1.6h1.6v1.6z"></path>
            <path d="M20 4.8h1.6zM4 6.4h1.6z"></path>
            <path d="M5.6 7.2h-1.6v-1.6h1.6v1.6zM21.6 5.6h-1.6v-1.6h1.6v1.6z"></path>
            <path d="M7.2 9.6h1.6zM13.6 16h1.6zM23.2 25.6h1.6z"></path>
            <path d="M24.8 26.4h-1.6v-1.6h1.6v1.6zM15.2 16.8h-1.6v-1.6h1.6v1.6zM8.8 10.4h-1.6v-1.6h1.6v1.6z"></path>
            <path d="M5.6 12.8h1.6zM12 16h1.6zM21.6 17.6h1.6zM12 19.2h1.6zM21.6 24h1.6zM18.4 25.6h1.6z"></path>
            <path d="M20 26.4h-1.6v-1.6h1.6v1.6zM23.2 24.8h-1.6v-1.6h1.6v1.6zM13.6 20h-1.6v-1.6h1.6v1.6zM23.2 18.4h-1.6v-1.6h1.6v1.6zM13.6 16.8h-1.6v-1.6h1.6v1.6zM7.2 13.6h-1.6v-1.6h1.6v1.6z"></path>
            <path d="M16.8 12.8h1.6z"></path>
            <path d="M16.8 12h1.6v1.6h-1.6v-1.6z"></path>
            <path d="M8.8 27.2h1.6zM12 27.2h1.6zM18.4 27.2h3.2z"></path>
            <path d="M21.6 28h-3.2v-1.6h3.2v1.6zM13.6 28h-1.6v-1.6h1.6v1.6zM10.4 28h-1.6v-1.6h1.6v1.6z"></path>
            <path d="M10.4 27.2h1.6z"></path>
            <path d="M10.4 26.4h1.6v1.6h-1.6v-1.6z"></path>
            <path d="M13.6 27.2h1.6z"></path>
            <path d="M13.6 26.4h1.6v1.6h-1.6v-1.6z"></path>
            <path d="M15.2 27.2h1.6z"></path>
            <path d="M15.2 26.4h1.6v1.6h-1.6v-1.6z"></path>
            <path d="M16.8 27.2h1.6zM26.4 27.2h1.6z"></path>
            <path d="M28 28h-1.6v-1.6h1.6v1.6zM18.4 28h-1.6v-1.6h1.6v1.6z"></path>
            <path d="M21.6 27.2h1.6z"></path>
            <path d="M21.6 26.4h1.6v1.6h-1.6v-1.6z"></path>
            <path d="M23.2 27.2h1.6z"></path>
            <path d="M23.2 26.4h1.6v1.6h-1.6v-1.6z"></path>
            <path d="M24.8 27.2h1.6z"></path>
            <path d="M24.8 26.4h1.6v1.6h-1.6v-1.6z"></path>
            <path d="M28 27.2h1.6z"></path>
            <path d="M28 26.4h1.6v1.6h-1.6v-1.6z"></path>
        </symbol>
        <symbol style="fill:currentColor" id="ppi-sparkle" viewBox="0 0 32 32">
            <title>Three sparkles shine in the light</title>
            <path d="M15.2 6.4h1.6zM10.4 17.6h1.6z"></path>
            <path d="M12 18.4h-1.6v-1.6h1.6v1.6zM16.8 7.2h-1.6v-1.6h1.6v1.6z"></path>
            <path d="M15.2 8h1.6zM20 9.6h1.6zM15.2 24h1.6z"></path>
            <path d="M16.8 24.8h-1.6v-1.6h1.6v1.6zM21.6 10.4h-1.6v-1.6h1.6v1.6zM16.8 8.8h-1.6v-1.6h1.6v1.6z"></path>
            <path d="M23.2 8h1.6zM13.6 9.6h1.6zM16.8 9.6h1.6zM12 11.2h3.2zM16.8 11.2h1.6zM23.2 11.2h1.6zM18.4 12.8h1.6zM10.4 14.4h1.6zM7.2 16h3.2zM21.6 16h3.2zM20 17.6h1.6zM12 19.2h1.6zM13.6 20.8h1.6zM16.8 20.8h3.2zM16.8 22.4h1.6zM15.2 25.6h1.6z"></path>
            <path d="M16.8 26.4h-1.6v-1.6h1.6v1.6zM18.4 23.2h-1.6v-3.2h3.2v1.6h-1.6v1.6zM15.2 21.6h-1.6v-1.6h-1.6v-1.6h1.6v1.6h1.6v1.6zM21.6 18.4h-1.6v-1.6h1.6v1.6zM24.8 16.8h-3.2v-1.6h3.2v1.6zM10.4 16.8h-3.2v-1.6h3.2v1.6zM12 15.2h-1.6v-1.6h1.6v1.6zM20 13.6h-1.6v-1.6h-1.6v-3.2h1.6v3.2h1.6v1.6zM24.8 12h-1.6v-1.6h1.6v1.6zM15.2 12h-3.2v-1.6h1.6v-1.6h1.6v3.2zM24.8 8.8h-1.6v-1.6h1.6v1.6z"></path>
            <path d="M12 12.8h1.6zM13.6 22.4h1.6z"></path>
            <path d="M15.2 23.2h-1.6v-1.6h1.6v1.6zM13.6 13.6h-1.6v-1.6h1.6v1.6z"></path>
            <path d="M20 14.4h1.6z"></path>
            <path d="M20 13.6h1.6v1.6h-1.6v-1.6z"></path>
            <path d="M18.4 19.2h1.6z"></path>
            <path d="M18.4 18.4h1.6v1.6h-1.6v-1.6z"></path>
        </symbol>
        <symbol style="fill:currentColor" id="ppi-unmuted" viewBox="0 0 32 32">
            <title>A speaker emitting sound, unmuted</title>
            <path d="M13.6 24.8h3.2zM12 23.2h1.6zM16.8 23.2h1.6zM23.2 23.2h1.6zM10.4 21.6h1.6zM16.8 21.6h1.6zM24.8 21.6h1.6zM5.6 20h3.2zM16.8 20h1.6zM20 20h1.6zM24.8 20h1.6zM16.8 18.4h1.6zM24.8 18.4h1.6zM21.6 16.8h1.6zM24.8 16.8h1.6zM21.6 15.2h1.6zM5.6 13.6h1.6zM24.8 13.6h1.6zM5.6 12h1.6zM16.8 12h1.6zM10.4 10.4h1.6zM16.8 10.4h1.6zM13.6 7.2h1.6zM16.8 7.2h1.6z"></path>
            <path d="M16.8 25.6h-3.2v-1.6h3.2v1.6zM24.8 24h-1.6v-1.6h1.6v1.6zM18.4 24h-1.6v-1.6h1.6v1.6zM13.6 24h-1.6v-1.6h1.6v1.6zM26.4 22.4h-1.6v-1.6h1.6v1.6zM18.4 22.4h-1.6v-1.6h1.6v1.6zM12 22.4h-1.6v-1.6h1.6v1.6zM26.4 20.8h-1.6v-1.6h1.6v1.6zM21.6 20.8h-1.6v-1.6h1.6v1.6zM18.4 20.8h-1.6v-1.6h1.6v1.6zM8.8 20.8h-3.2v-1.6h3.2v1.6zM26.4 19.2h-1.6v-1.6h1.6v1.6zM18.4 19.2h-1.6v-1.6h1.6v1.6zM26.4 17.6h-1.6v-1.6h1.6v1.6zM23.2 17.6h-1.6v-1.6h1.6v1.6zM23.2 16h-1.6v-1.6h1.6v1.6zM26.4 14.4h-1.6v-1.6h1.6v1.6zM7.2 14.4h-1.6v-1.6h1.6v1.6zM18.4 12.8h-1.6v-1.6h1.6v1.6zM7.2 12.8h-1.6v-1.6h1.6v1.6zM18.4 11.2h-1.6v-1.6h1.6v1.6zM12 11.2h-1.6v-1.6h1.6v1.6zM18.4 8h-1.6v-1.6h1.6v1.6zM15.2 8h-1.6v-1.6h1.6v1.6z"></path>
            <path d="M16.8 24.8h1.6zM5.6 18.4h1.6zM21.6 18.4h1.6zM5.6 15.2h1.6zM16.8 15.2h1.6zM12 8.8h1.6zM15.2 7.2h1.6z"></path>
            <path d="M18.4 25.6h-1.6v-1.6h1.6v1.6zM23.2 19.2h-1.6v-1.6h1.6v1.6zM7.2 19.2h-1.6v-1.6h1.6v1.6zM18.4 16h-1.6v-1.6h1.6v1.6zM7.2 16h-1.6v-1.6h1.6v1.6zM13.6 9.6h-1.6v-1.6h1.6v1.6zM16.8 8h-1.6v-1.6h1.6v1.6z"></path>
            <path d="M8.8 20h1.6z"></path>
            <path d="M8.8 19.2h1.6v1.6h-1.6v-1.6z"></path>
            <path d="M5.6 16.8h1.6zM24.8 15.2h1.6zM21.6 13.6h1.6zM8.8 12h1.6zM24.8 10.4h1.6zM23.2 8.8h1.6z"></path>
            <path d="M7.2 17.6h-1.6v-1.6h1.6v1.6zM26.4 16h-1.6v-1.6h1.6v1.6zM23.2 14.4h-1.6v-1.6h1.6v1.6zM10.4 12.8h-1.6v-1.6h1.6v1.6zM26.4 11.2h-1.6v-1.6h1.6v1.6zM24.8 9.6h-1.6v-1.6h1.6v1.6z"></path>
            <path d="M16.8 16.8h1.6zM7.2 12h1.6zM20 12h1.6zM24.8 12h1.6z"></path>
            <path d="M18.4 17.6h-1.6v-1.6h1.6v1.6zM26.4 12.8h-1.6v-1.6h1.6v1.6zM21.6 12.8h-1.6v-1.6h1.6v1.6zM8.8 12.8h-1.6v-1.6h1.6v1.6z"></path>
            <path d="M16.8 13.6h1.6zM16.8 8.8h1.6z"></path>
            <path d="M18.4 14.4h-1.6v-1.6h1.6v1.6zM18.4 9.6h-1.6v-1.6h1.6v1.6z"></path>
        </symbol>
        <symbol style="fill:currentColor" id="ppi-x" viewBox="0 0 32 32">
            <title>An x mark</title>
            <path d="M5.6 6.4h3.2zM23.2 6.4h1.6zM5.6 8h4.8zM24.8 8h1.6zM7.2 9.6h1.6zM20 9.6h3.2zM8.8 11.2h3.2zM20 11.2h3.2zM10.4 12.8h1.6zM18.4 12.8h3.2zM12 14.4h3.2zM15.2 16h1.6zM15.2 17.6h4.8zM10.4 19.2h3.2zM18.4 19.2h1.6zM8.8 20.8h4.8zM21.6 20.8h1.6zM8.8 22.4h3.2zM21.6 22.4h3.2zM7.2 24h3.2zM21.6 24h4.8zM5.6 25.6h1.6zM23.2 25.6h1.6z"></path>
            <path d="M24.8 26.4h-1.6v-1.6h-1.6v-4.8h1.6v1.6h1.6v1.6h1.6v1.6h-1.6v1.6zM7.2 26.4h-1.6v-1.6h1.6v1.6zM10.4 24.8h-3.2v-1.6h1.6v-3.2h1.6v-1.6h3.2v3.2h-1.6v1.6h-1.6v1.6zM20 20h-1.6v-1.6h-3.2v-3.2h-3.2v-1.6h-1.6v-1.6h-1.6v-1.6h-1.6v-1.6h-1.6v-3.2h3.2v1.6h1.6v1.6h-1.6v1.6h3.2v3.2h3.2v1.6h1.6v1.6h3.2v3.2zM21.6 13.6h-3.2v-1.6h1.6v-3.2h3.2v3.2h-1.6v1.6zM26.4 8.8h-1.6v-1.6h-1.6v-1.6h1.6v1.6h1.6v1.6z"></path>
            <path d="M24.8 6.4h1.6zM23.2 8h1.6zM8.8 9.6h1.6zM23.2 9.6h1.6zM16.8 12.8h1.6zM16.8 14.4h1.6zM13.6 17.6h1.6zM20 20.8h1.6zM5.6 24h1.6z"></path>
            <path d="M7.2 24.8h-1.6v-1.6h1.6v1.6zM21.6 21.6h-1.6v-1.6h1.6v1.6zM15.2 18.4h-1.6v-1.6h1.6v1.6zM18.4 15.2h-1.6v-3.2h1.6v3.2zM24.8 10.4h-1.6v-3.2h1.6v3.2zM10.4 10.4h-1.6v-1.6h1.6v1.6zM26.4 7.2h-1.6v-1.6h1.6v1.6z"></path>
            <path d="M21.6 8h1.6zM10.4 9.6h1.6zM18.4 14.4h1.6zM16.8 16h1.6zM13.6 19.2h1.6zM18.4 20.8h1.6z"></path>
            <path d="M20 21.6h-1.6v-1.6h1.6v1.6zM15.2 20h-1.6v-1.6h1.6v1.6zM18.4 16.8h-1.6v-1.6h1.6v1.6zM20 15.2h-1.6v-1.6h1.6v1.6zM12 10.4h-1.6v-1.6h1.6v1.6zM23.2 8.8h-1.6v-1.6h1.6v1.6z"></path>
            <path d="M12 11.2h1.6z"></path>
            <path d="M12 10.4h1.6v1.6h-1.6v-1.6z"></path>
            <path d="M18.4 11.2h1.6zM12 12.8h3.2zM15.2 14.4h1.6zM13.6 16h1.6zM20 19.2h1.6zM7.2 22.4h1.6zM20 22.4h1.6zM7.2 25.6h1.6zM24.8 25.6h1.6z"></path>
            <path d="M26.4 26.4h-1.6v-1.6h1.6v1.6zM8.8 26.4h-1.6v-1.6h1.6v1.6zM21.6 23.2h-1.6v-1.6h1.6v1.6zM8.8 23.2h-1.6v-1.6h1.6v1.6zM21.6 20h-1.6v-1.6h1.6v1.6zM15.2 16.8h-1.6v-1.6h1.6v1.6zM16.8 15.2h-1.6v-1.6h-3.2v-1.6h3.2v1.6h1.6v1.6zM20 12h-1.6v-1.6h1.6v1.6z"></path>
            <path d="M12 17.6h1.6zM16.8 19.2h1.6z"></path>
            <path d="M18.4 20h-1.6v-1.6h1.6v1.6zM13.6 18.4h-1.6v-1.6h1.6v1.6z"></path>
        </symbol>
        <symbol style="fill:currentColor" id="ppi-dragon" viewBox= "0 0 20 20">
            <title>Silhoutte of a dragon</title>
            <path stroke="#000"
                d="M8 0h1m2 0h1m2 0h1m1 0h1M8 1h2m3 0h3m1 0h1M7 2h2m2 0h1m1 0h1m3 0h2M6 3h1m1 0h1m1 0h4m4 0h1M6 4h3m1 0h1m7 0h1M5 5h4m2 0h2m2 0h1M5 6h4m1 0h2m5 0h1M4 7h1m1 0h2m2 0h2m1 0h1M4 8h1m2 0h2m1 0h1m2 0h2M3 9h5m1 0h1m3 0h1m-8 1h4m1 0h1m1 0h2M2 11h5m1 0h1m3 0h4M1 12h5m2 0h1m2 0h3m3 0h1M3 13h2m5 0h2m5 0h1M3 14h2m7 0h1m1 0h1m-6 1h1m2 0h1m-7 1h1m3 0h2m1 0h2m-8 1h1m1 0h4m1 0h1m-7 1h1m2 0h5m-9 1h1m1 0h2m1 0h3m2 0h1" />
            <path stroke="#000101" d="M9 0h1M7 1h1m5 4h1M5 7h1m4 2h1m4 1h1m-5 4h1m-4 3h1" />
            <path stroke="#010000"
                d="M10 0h1m2 0h1m2 1h1M6 2h1m0 1h1m1 1h1m1 0h1m2 0h1m-1 2h1m1 0h1m-3 1h1m-4 2h1m-8 1h2m6 0h1m-2 1h1m-2 1h1m5 0h1M5 13h1m2 0h1m-1 3h1m3 0h1" />
            <path stroke="#000001"
                d="M15 0h1m-4 1h1m1 4h1m0 1h1m-4 1h1m4 0h1M5 8h1m3 0h1m1 0h1M8 9h1m3 0h1m1 0h1m-5 2h1m-5 1h2m-6 1h1m10 0h1m-5 1h1m3 0h1m-7 1h1m2 0h1m4 1h1M5 18h1m1 0h1m1 0h2m5 0h2M4 19h1m6 0h1" />
            <path stroke="#000100"
                d="M12 2h1M9 3h1m2 3h1M6 8h1m5 0h1m-3 2h1M1 11h1m12 1h2m-2 1h1m-5 1h1m0 1h1m1 0h2m-6 1h1m5 1h1M6 19h1m1 0h1" />
            <path stroke="#010001" d="M14 2h1M9 5h2m2 1h1M2 14h1" />
            <path stroke="rgba(0,1,0,0.9882352941176471)" d="M12 4h1" />
            <path stroke="#010100" d="M13 4h1M3 10h1m8 3h1m0 4h1" />
            <path stroke="rgba(0,0,0,0.996078431372549)" d="M16 5h1m-2 2h1m-1 1h1m0 2h1m-1 1h1m-2 4h1m0 1h1" />
            <path stroke="rgba(0,0,0,0.00392156862745098)" d="M16 7h1" />
            <path stroke="rgba(0,0,1,0.996078431372549)" d="M15 9h1m-8 5h1" />
            <path stroke="#010101" d="M7 11h1" />
            <path stroke="rgba(1,0,0,0.9764705882352941)" d="M9 11h1m-2 4h1" />
            <path stroke="rgba(1,1,0,0.9764705882352941)" d="M9 12h1m-1 1h1" />
            <path stroke="rgba(0,0,0,0.9686274509803922)" d="M6 13h1m-1 5h1" />
            <path stroke="rgba(0,0,1,0.00784313725490196)" d="M7 13h1" />
            <path stroke="rgba(1,0,0,0.996078431372549)" d="M15 13h1m0 4h1" />
            <path stroke="rgba(1,0,0,0.00392156862745098)" d="M16 13h1" />
            <path stroke="rgba(0,0,1,0.9647058823529412)" d="M5 14h1" />
            <path stroke="rgba(0,1,0,0.996078431372549)" d="M15 14h1" />
            <path stroke="rgba(0,1,0,0.9686274509803922)" d="M7 16h1" />
            <path stroke="rgba(0,0,1,0.9921568627450981)" d="M6 17h1" />
            <path stroke="rgba(0,0,0,0.9647058823529412)" d="M5 19h1" />
            <path stroke="rgba(0,1,0,0.9921568627450981)" d="M15 19h1" />
            <path stroke="rgba(0,0,1,0.00392156862745098)" d="M16 19h1" />
        </symbol>
    </defs>
</svg>
